<svg width="25" height="19" viewBox="0 0 25 19" fill="none" xmlns="http://www.w3.org/2000/svg">
<path d="M23.8502 13.1163C23.9517 12.5182 23.9517 11.9073 23.8502 11.3092L24.8581 10.6772C24.9753 10.605 25.0261 10.4566 24.987 10.3166C24.7253 9.40031 24.276 8.56888 23.69 7.88167C23.6001 7.77562 23.4556 7.75017 23.3384 7.82228L22.3305 8.45434C21.9047 8.05983 21.4163 7.75441 20.8889 7.55079V6.28667C20.8889 6.14244 20.7952 6.01518 20.6662 5.98549C19.7951 5.77339 18.9082 5.78187 18.08 5.98549C17.9511 6.01518 17.8574 6.14244 17.8574 6.28667V7.55079C17.33 7.75441 16.8416 8.05983 16.4158 8.45434L15.4079 7.82228C15.2946 7.75017 15.1461 7.77562 15.0563 7.88167C14.4703 8.56888 14.021 9.40031 13.7593 10.3166C13.7202 10.4566 13.7749 10.605 13.8882 10.6772L14.8961 11.3092C14.7945 11.9073 14.7945 12.5182 14.8961 13.1163L13.8882 13.7484C13.771 13.8205 13.7202 13.969 13.7593 14.109C14.021 15.0252 14.4703 15.8524 15.0563 16.5439C15.1461 16.6499 15.2907 16.6754 15.4079 16.6033L16.4158 15.9712C16.8416 16.3657 17.33 16.6711 17.8574 16.8747V18.1389C17.8574 18.2831 17.9511 18.4104 18.08 18.4401C18.9512 18.6522 19.838 18.6437 20.6662 18.4401C20.7952 18.4104 20.8889 18.2831 20.8889 18.1389V16.8747C21.4163 16.6711 21.9047 16.3657 22.3305 15.9712L23.3384 16.6033C23.4517 16.6754 23.6001 16.6499 23.69 16.5439C24.276 15.8567 24.7253 15.0252 24.987 14.109C25.0261 13.969 24.9714 13.8205 24.8581 13.7484L23.8502 13.1163ZM19.377 14.2701C18.3301 14.2701 17.4823 13.3454 17.4823 12.2128C17.4823 11.0802 18.334 10.1554 19.377 10.1554C20.4201 10.1554 21.2718 11.0802 21.2718 12.2128C21.2718 13.3454 20.424 14.2701 19.377 14.2701ZM3.7504 8.14043C5.12945 8.14043 6.25066 6.92297 6.25066 5.42554C6.25066 3.92811 5.12945 2.71065 3.7504 2.71065C2.37134 2.71065 1.25013 3.92811 1.25013 5.42554C1.25013 6.92297 2.37134 8.14043 3.7504 8.14043ZM12.5013 9.49788C12.5755 9.49788 12.6459 9.47667 12.7201 9.47243C13.0443 8.55191 13.521 7.68654 14.1382 6.96115C14.4273 6.62179 14.8375 6.42666 15.2672 6.42666C15.5368 6.42666 15.8024 6.50301 16.0329 6.65148L16.3416 6.84662C16.3728 6.82541 16.4041 6.80844 16.4353 6.78723C16.7088 6.16789 16.8729 5.48069 16.8729 4.75106C16.8729 2.12525 14.9156 0 12.4974 0C10.0792 0 8.12586 2.12101 8.12586 4.74682C8.12586 7.37263 10.0831 9.49788 12.5013 9.49788ZM16.6111 17.7486C16.5213 17.6977 16.4314 17.6383 16.3455 17.5832C16.0251 17.7868 15.7478 17.9989 15.2711 17.9989C14.8453 17.9989 14.4351 17.8037 14.1421 17.4644C13.4272 16.6245 12.8803 15.6021 12.5716 14.5119C12.1536 13.0484 13.5444 12.4037 13.5796 12.3782C13.5757 12.2679 13.5757 12.1576 13.5796 12.0473L13.2709 11.8522C13.1225 11.7589 12.9975 11.6401 12.8881 11.5086C12.7592 11.5171 12.6341 11.534 12.5052 11.534C11.5442 11.534 10.6457 11.2795 9.82916 10.8553H9.50491C7.01637 10.8553 5.00053 13.0442 5.00053 15.7421V16.9638C5.00053 18.088 5.84046 19 6.87573 19H16.8533C16.7088 18.7455 16.6111 18.457 16.6111 18.1389V17.7486ZM6.76243 10.2869C6.30926 9.79906 5.6881 9.49788 5.00053 9.49788H2.50026C1.12121 9.49788 0 10.7153 0 12.2128V13.5702C0 14.3211 0.558653 14.9277 1.25013 14.9277H3.82462C4.07074 12.9169 5.18805 11.2244 6.76243 10.2869Z" fill="black"/>
</svg>
