<svg width="11" height="11" viewBox="0 0 11 11" fill="none" xmlns="http://www.w3.org/2000/svg">
<path d="M5.5 0C2.46169 0 0 2.46169 0 5.5C0 8.53831 2.46169 11 5.5 11C8.53831 11 11 8.53831 11 5.5C11 2.46169 8.53831 0 5.5 0ZM8.69355 6.12097C8.69355 6.26734 8.57379 6.3871 8.42742 6.3871H6.3871V8.42742C6.3871 8.57379 6.26734 8.69355 6.12097 8.69355H4.87903C4.73266 8.69355 4.6129 8.57379 4.6129 8.42742V6.3871H2.57258C2.42621 6.3871 2.30645 6.26734 2.30645 6.12097V4.87903C2.30645 4.73266 2.42621 4.6129 2.57258 4.6129H4.6129V2.57258C4.6129 2.42621 4.73266 2.30645 4.87903 2.30645H6.12097C6.26734 2.30645 6.3871 2.42621 6.3871 2.57258V4.6129H8.42742C8.57379 4.6129 8.69355 4.73266 8.69355 4.87903V6.12097Z" fill="#999999"/>
</svg>
