<svg width="29" height="29" viewBox="0 0 29 29" fill="none" xmlns="http://www.w3.org/2000/svg">
<path d="M14.5007 9.0625C11.5043 9.0625 9.06294 11.5037 9.06294 14.5C9.06294 17.4963 11.5043 19.9375 14.5007 19.9375C17.4971 19.9375 19.9385 17.4963 19.9385 14.5C19.9385 11.5037 17.4971 9.0625 14.5007 9.0625ZM28.4576 13.6221L23.0935 10.943L24.9911 5.25625C25.246 4.48594 24.5153 3.75527 23.7506 4.01582L18.0636 5.91328L15.3787 0.54375C15.0162 -0.18125 13.9852 -0.18125 13.6227 0.54375L10.9435 5.90762L5.25084 4.01016C4.48049 3.75527 3.74979 4.48594 4.01035 5.25059L5.9079 10.9373L0.543776 13.6221C-0.181259 13.9846 -0.181259 15.0154 0.543776 15.3779L5.9079 18.057L4.01035 23.7494C3.75546 24.5197 4.48615 25.2504 5.25084 24.9898L10.9378 23.0924L13.6171 28.4562C13.9796 29.1812 15.0105 29.1812 15.373 28.4562L18.0522 23.0924L23.7392 24.9898C24.5096 25.2447 25.2403 24.5141 24.9797 23.7494L23.0822 18.0627L28.4463 15.3836C29.1827 15.0154 29.1827 13.9846 28.4576 13.6221ZM19.6269 19.626C16.8004 22.4523 12.201 22.4523 9.37448 19.626C6.54797 16.7996 6.54797 12.2004 9.37448 9.37402C12.201 6.54766 16.8004 6.54766 19.6269 9.37402C22.4534 12.2004 22.4534 16.7996 19.6269 19.626Z" fill="black"/>
</svg>
