<svg width="91" height="83" viewBox="0 0 91 83" fill="none" xmlns="http://www.w3.org/2000/svg">
<path d="M18.4844 36.3125H4.26562C1.90976 36.3125 0 38.0544 0 40.2031V79.1094C0 81.2581 1.90976 83 4.26562 83H18.4844C20.8402 83 22.75 81.2581 22.75 79.1094V40.2031C22.75 38.0544 20.8402 36.3125 18.4844 36.3125ZM11.375 76.5156C9.01913 76.5156 7.10938 74.7738 7.10938 72.625C7.10938 70.4762 9.01913 68.7344 11.375 68.7344C13.7309 68.7344 15.6406 70.4762 15.6406 72.625C15.6406 74.7738 13.7309 76.5156 11.375 76.5156ZM68.25 13.2041C68.25 20.0802 63.6342 23.9371 62.3355 28.5312H80.4152C86.351 28.5312 90.9721 33.0291 90.9998 37.9495C91.0147 40.8574 89.6586 43.9879 87.5448 45.9248L87.5253 45.9426C89.2735 49.7258 88.9893 55.0267 85.8709 58.8253C87.4139 63.0231 85.8587 68.1796 82.9593 70.9441C83.7232 73.7969 83.3581 76.2248 81.8666 78.1794C78.239 82.9331 69.2482 83 61.6452 83L61.1396 82.9998C52.5573 82.9971 45.5334 80.147 39.8896 77.8569C37.0535 76.7061 33.3453 75.2815 30.5317 75.2343C29.3694 75.2149 28.4375 74.3497 28.4375 73.2893V38.6352C28.4375 38.1165 28.6654 37.6186 29.0699 37.2539C36.1106 30.9083 39.1382 24.19 44.909 18.9175C47.5402 16.5131 48.4971 12.8812 49.4222 9.36895C50.2126 6.36976 51.8659 0 55.4531 0C59.7188 0 68.25 1.29688 68.25 13.2041Z" fill="#EF2F50"/>
</svg>
