<svg width="26" height="26" viewBox="0 0 26 26" fill="none" xmlns="http://www.w3.org/2000/svg">
<path d="M3.83883 3.8389C-1.04391 8.72164 -1.04391 16.6338 3.83883 21.5166C8.72158 26.3993 16.6338 26.3993 21.5165 21.5166C26.3992 16.6338 26.3992 8.72164 21.5165 3.8389C16.6338 -1.04384 8.72158 -1.04384 3.83883 3.8389ZM18.8078 8.54344C19.0431 8.77867 19.0431 9.16358 18.8078 9.39881L15.5289 12.6777L18.8078 15.9567C19.0431 16.1919 19.0431 16.5768 18.8078 16.812L16.812 18.8079C16.5767 19.0431 16.1918 19.0431 15.9566 18.8079L12.6777 15.529L9.39875 18.8079C9.16352 19.0431 8.7786 19.0431 8.54338 18.8079L6.54751 16.812C6.31228 16.5768 6.31228 16.1919 6.54751 15.9567L9.82643 12.6777L6.54751 9.39881C6.31228 9.16358 6.31228 8.77867 6.54751 8.54344L8.54338 6.54758C8.7786 6.31235 9.16352 6.31235 9.39875 6.54757L12.6777 9.8265L15.9566 6.54757C16.1918 6.31235 16.5767 6.31235 16.812 6.54758L18.8078 8.54344Z" fill="white"/>
</svg>
