<svg width="26" height="26" viewBox="0 0 26 26" fill="none" xmlns="http://www.w3.org/2000/svg">
<path d="M3.83883 3.83878C-1.04391 8.72152 -1.04391 16.6337 3.83883 21.5164C8.72158 26.3992 16.6338 26.3992 21.5165 21.5164C26.3992 16.6337 26.3992 8.72152 21.5165 3.83878C16.6338 -1.04397 8.72158 -1.04397 3.83883 3.83878ZM18.8078 8.54332C19.0431 8.77855 19.0431 9.16346 18.8078 9.39869L15.5289 12.6776L18.8078 15.9565C19.0431 16.1918 19.0431 16.5767 18.8078 16.8119L16.812 18.8078C16.5767 19.043 16.1918 19.043 15.9566 18.8078L12.6777 15.5288L9.39875 18.8078C9.16352 19.043 8.7786 19.043 8.54338 18.8078L6.54751 16.8119C6.31228 16.5767 6.31228 16.1918 6.54751 15.9565L9.82643 12.6776L6.54751 9.39869C6.31228 9.16346 6.31228 8.77855 6.54751 8.54332L8.54338 6.54745C8.7786 6.31223 9.16352 6.31223 9.39875 6.54745L12.6777 9.82638L15.9566 6.54745C16.1918 6.31223 16.5767 6.31223 16.812 6.54745L18.8078 8.54332Z" fill="#EF2F50" fill-opacity="0.7"/>
</svg>
