<svg width="9" height="9" viewBox="0 0 9 9" fill="none" xmlns="http://www.w3.org/2000/svg">
<path d="M4.39979 0C2.05153 0 0.148926 2.01411 0.148926 4.5C0.148926 6.98589 2.05153 9 4.39979 9C6.74805 9 8.65066 6.98589 8.65066 4.5C8.65066 2.01411 6.74805 0 4.39979 0ZM5.37852 6.35262L3.86672 5.18952C3.81358 5.14778 3.78273 5.08246 3.78273 5.01351V1.95968C3.78273 1.83992 3.87529 1.74194 3.98842 1.74194H4.81116C4.92429 1.74194 5.01685 1.83992 5.01685 1.95968V4.45827L6.10528 5.29657C6.19784 5.36734 6.21669 5.50343 6.14984 5.60141L5.66648 6.30544C5.59963 6.40161 5.47108 6.42339 5.37852 6.35262Z" fill="#F6F6F6"/>
</svg>
