<svg width="9" height="10" viewBox="0 0 9 10" fill="none" xmlns="http://www.w3.org/2000/svg">
<path d="M8.42293 3.125H0.376651C0.25089 3.125 0.148926 3.02006 0.148926 2.89062V2.1875C0.148926 1.66973 0.556743 1.25 1.05983 1.25H1.97073V0.234375C1.97073 0.104941 2.07269 0 2.19845 0H2.95753C3.08329 0 3.18526 0.104941 3.18526 0.234375V1.25H5.61432V0.234375C5.61432 0.104941 5.71629 0 5.84205 0H6.60113C6.72689 0 6.82886 0.104941 6.82886 0.234375V1.25H7.73976C8.24284 1.25 8.65066 1.66973 8.65066 2.1875V2.89062C8.65066 3.02006 8.54869 3.125 8.42293 3.125ZM0.376651 3.75H8.42293C8.54869 3.75 8.65066 3.85494 8.65066 3.98438V9.0625C8.65066 9.58027 8.24284 10 7.73976 10H1.05983C0.556743 10 0.148926 9.58027 0.148926 9.0625V3.98438C0.148926 3.85494 0.25089 3.75 0.376651 3.75ZM6.70163 5.62396L6.16707 5.06932C6.0785 4.97742 5.93432 4.97682 5.84503 5.06799L3.83276 7.12236L2.96019 6.21705C2.87162 6.12516 2.72742 6.12455 2.63813 6.21572L2.09924 6.76592C2.00995 6.85707 2.00936 7.00547 2.09795 7.09736L3.66547 8.72371C3.75404 8.81561 3.89823 8.81621 3.98751 8.72504L6.70034 5.95541C6.78963 5.86426 6.79022 5.71586 6.70163 5.62396Z" fill="#F6F6F6"/>
</svg>
