<svg width="22" height="19" viewBox="0 0 22 19" fill="none" xmlns="http://www.w3.org/2000/svg">
<path d="M17.1167 8.38453L9.83328 0.521721C9.52385 0.187671 9.10417 2.47028e-06 8.66656 0H1.65C0.738719 0 0 0.79748 0 1.78125V9.35594C2.28826e-06 9.82835 0.173843 10.2814 0.483278 10.6155L7.76672 18.4783C8.41105 19.1739 9.45578 19.1739 10.1002 18.4783L17.1167 10.9036C17.7611 10.208 17.7611 9.08014 17.1167 8.38453ZM3.85 5.9375C2.93872 5.9375 2.2 5.14002 2.2 4.15625C2.2 3.17248 2.93872 2.375 3.85 2.375C4.76128 2.375 5.5 3.17248 5.5 4.15625C5.5 5.14002 4.76128 5.9375 3.85 5.9375ZM21.5167 10.9036L14.5002 18.4783C13.8558 19.1739 12.8111 19.1739 12.1667 18.4783L12.1544 18.4649L18.1376 12.0057C18.722 11.3749 19.0438 10.5362 19.0438 9.64406C19.0438 8.75195 18.7219 7.91324 18.1376 7.28242L11.3918 0H13.0666C13.5042 2.47028e-06 13.9238 0.187671 14.2333 0.521721L21.5167 8.38453C22.1611 9.08014 22.1611 10.208 21.5167 10.9036Z" fill="white"/>
</svg>
