<svg width="18" height="16" viewBox="0 0 18 16" fill="none" xmlns="http://www.w3.org/2000/svg">
<path d="M17.3571 4.57143H0.642857C0.472361 4.57143 0.308848 4.63163 0.188289 4.7388C0.0677294 4.84596 0 4.9913 0 5.14286L0 6.28571C0 6.43727 0.0677294 6.58261 0.188289 6.68978C0.308848 6.79694 0.472361 6.85714 0.642857 6.85714H17.3571C17.5276 6.85714 17.6912 6.79694 17.8117 6.68978C17.9323 6.58261 18 6.43727 18 6.28571V5.14286C18 4.9913 17.9323 4.84596 17.8117 4.7388C17.6912 4.63163 17.5276 4.57143 17.3571 4.57143ZM17.3571 13.7143H0.642857C0.472361 13.7143 0.308848 13.7745 0.188289 13.8817C0.0677294 13.9888 0 14.1342 0 14.2857L0 15.4286C0 15.5801 0.0677294 15.7255 0.188289 15.8326C0.308848 15.9398 0.472361 16 0.642857 16H17.3571C17.5276 16 17.6912 15.9398 17.8117 15.8326C17.9323 15.7255 18 15.5801 18 15.4286V14.2857C18 14.1342 17.9323 13.9888 17.8117 13.8817C17.6912 13.7745 17.5276 13.7143 17.3571 13.7143ZM4.3433 2.28571H13.6571C13.7209 2.28571 13.7841 2.27453 13.8431 2.25281C13.902 2.23109 13.9556 2.19925 14.0007 2.15912C14.0458 2.11899 14.0816 2.07135 14.106 2.01892C14.1304 1.96649 14.1429 1.9103 14.1429 1.85357V0.431786C14.1429 0.375083 14.1303 0.318935 14.1059 0.266549C14.0815 0.214162 14.0457 0.166562 14.0006 0.126467C13.9555 0.0863723 13.9019 0.0545671 13.843 0.0328679C13.7841 0.0111686 13.7209 1.47716e-07 13.6571 1.47716e-07H4.3433C4.27948 -4.67778e-05 4.21627 0.011087 4.15729 0.0327653C4.09831 0.0544435 4.04471 0.0862412 3.99956 0.126341C3.95441 0.166441 3.91859 0.214056 3.89416 0.266466C3.86972 0.318876 3.85714 0.375053 3.85714 0.431786V1.85357C3.85714 1.96818 3.90836 2.0781 3.99954 2.15914C4.09071 2.24019 4.21437 2.28571 4.3433 2.28571ZM13.6571 11.4286C13.7209 11.4286 13.7841 11.4174 13.8431 11.3957C13.902 11.3739 13.9556 11.3421 14.0007 11.302C14.0458 11.2618 14.0816 11.2142 14.106 11.1618C14.1304 11.1093 14.1429 11.0532 14.1429 10.9964V9.57464C14.1429 9.46013 14.0917 9.3503 14.0006 9.26932C13.9095 9.18835 13.7859 9.14286 13.6571 9.14286H4.3433C4.27948 9.14281 4.21627 9.15394 4.15729 9.17562C4.09831 9.1973 4.04471 9.2291 3.99956 9.2692C3.95441 9.3093 3.91859 9.35691 3.89416 9.40932C3.86972 9.46173 3.85714 9.51791 3.85714 9.57464V10.9964C3.85714 11.0532 3.86972 11.1094 3.89415 11.1618C3.91858 11.2142 3.95439 11.2619 3.99954 11.302C4.04468 11.3421 4.09827 11.374 4.15726 11.3957C4.21624 11.4174 4.27946 11.4286 4.3433 11.4286H13.6571Z" fill="#BBBBBB"/>
</svg>
