<svg width="164" height="164" viewBox="0 0 164 164" fill="none" xmlns="http://www.w3.org/2000/svg">
<circle cx="82" cy="82" r="80.5" stroke="#EF2F50" stroke-width="3"/>
<path d="M122.937 89.0811L130.898 56.5811C131.473 54.2345 129.55 52 126.957 52H60.8111L59.2675 44.9984C58.8829 43.2533 57.2278 42 55.3078 42H38.0417C35.8095 42 34 43.6789 34 45.75V48.25C34 50.3211 35.8095 52 38.0417 52H49.8102L61.6401 105.662C58.8099 107.172 56.9028 110.003 56.9028 113.25C56.9028 118.082 61.125 122 66.3333 122C71.5417 122 75.7639 118.082 75.7639 113.25C75.7639 110.801 74.6782 108.588 72.9307 107H108.236C106.488 108.588 105.403 110.801 105.403 113.25C105.403 118.082 109.625 122 114.833 122C120.042 122 124.264 118.082 124.264 113.25C124.264 109.786 122.094 106.792 118.946 105.374L119.875 101.581C120.45 99.2345 118.527 97 115.934 97H70.7315L69.6293 92H118.996C120.883 92 122.519 90.7884 122.937 89.0811Z" fill="#EF2F50"/>
</svg>
