<svg width="29" height="27" viewBox="0 0 29 27" fill="none" xmlns="http://www.w3.org/2000/svg">
<path d="M8.8752 13.4992H0.906211C0.407795 13.4992 0 13.9332 0 14.4636V16.3924C0 16.9228 0.407795 17.3568 0.906211 17.3568H8.96016C9.86071 17.3568 10.7046 18.0138 10.8519 18.9601C11.0388 20.1656 10.1666 21.2144 9.06211 21.2144C8.26351 21.2144 7.58385 20.6599 7.34031 19.8944C7.22137 19.5147 6.85322 19.2856 6.47941 19.2856H4.62167C4.06662 19.2856 3.61918 19.816 3.72113 20.3947C4.20822 23.0528 6.4171 25.072 9.05644 25.072C12.2905 25.072 14.8732 22.0522 14.4484 18.5261C14.1029 15.6089 11.6335 13.4992 8.8752 13.4992ZM0.906211 11.5704H19.9366C23.3179 11.5704 25.9856 8.26739 25.2493 4.53639C24.8188 2.35445 23.1593 0.588396 21.109 0.130309C17.9713 -0.568878 15.1564 1.63115 14.6013 4.68105C14.4937 5.25969 14.9468 5.78408 15.4962 5.78408H17.3539C17.7334 5.78408 18.0959 5.55503 18.2148 5.1753C18.4584 4.40981 19.138 3.85529 19.9366 3.85529C21.0354 3.85529 21.9133 4.90407 21.7264 6.10956C21.5791 7.05587 20.7409 7.71287 19.8347 7.71287H0.906211C0.407795 7.71287 0 8.14684 0 8.67726V10.6061C0 11.1365 0.407795 11.5704 0.906211 11.5704ZM22.6553 13.4992H13.8027C14.8958 14.4998 15.6831 15.8379 16.0569 17.3568H22.6553C24.1562 17.3568 25.3739 18.6527 25.3739 20.25C25.3739 21.8473 24.1562 23.1432 22.6553 23.1432C21.6414 23.1432 20.7692 22.5465 20.2991 21.6725C20.1349 21.3711 19.8064 21.2144 19.4779 21.2144H17.5635C16.9461 21.2144 16.4874 21.8654 16.6969 22.4862C17.7051 25.5361 20.6899 27.5975 24.0259 26.8441C26.3594 26.3197 28.2794 24.3366 28.8232 21.8593C29.7917 17.4472 26.6483 13.4992 22.6553 13.4992Z" fill="black"/>
</svg>
