<svg width="27" height="26" viewBox="0 0 27 26" fill="none" xmlns="http://www.w3.org/2000/svg">
<path d="M13.142 6.74508L4.50036 15.5588V25.0713C4.50036 25.3176 4.57937 25.5538 4.72001 25.728C4.86065 25.9022 5.0514 26 5.2503 26L10.5027 25.9832C10.701 25.9819 10.8907 25.8836 11.0306 25.7095C11.1704 25.5355 11.2489 25.3 11.2489 25.0545V19.4993C11.2489 19.253 11.3279 19.0168 11.4686 18.8426C11.6092 18.6684 11.7999 18.5706 11.9988 18.5706H14.9986C15.1975 18.5706 15.3883 18.6684 15.5289 18.8426C15.6695 19.0168 15.7486 19.253 15.7486 19.4993V25.0504C15.7482 25.1726 15.7674 25.2937 15.805 25.4067C15.8425 25.5197 15.8977 25.6224 15.9674 25.709C16.037 25.7955 16.1198 25.8642 16.211 25.911C16.3021 25.9579 16.3998 25.982 16.4985 25.982L21.749 26C21.9479 26 22.1387 25.9022 22.2793 25.728C22.42 25.5538 22.499 25.3176 22.499 25.0713V15.5524L13.8592 6.74508C13.7576 6.6437 13.6311 6.58841 13.5006 6.58841C13.3701 6.58841 13.2436 6.6437 13.142 6.74508ZM26.7924 12.7356L22.8739 8.73593V0.696506C22.8739 0.511781 22.8147 0.334622 22.7092 0.204002C22.6037 0.0733818 22.4607 0 22.3115 0H19.6867C19.5375 0 19.3944 0.0733818 19.289 0.204002C19.1835 0.334622 19.1242 0.511781 19.1242 0.696506V4.91095L14.9278 0.635562C14.5251 0.225192 14.0198 0.000820337 13.4983 0.000820337C12.9767 0.000820337 12.4714 0.225192 12.0687 0.635562L0.204124 12.7356C0.14717 12.7939 0.100049 12.8655 0.065454 12.9464C0.0308591 13.0272 0.00946838 13.1157 0.00250394 13.2068C-0.00446049 13.2979 0.00313788 13.3898 0.0248649 13.4773C0.0465919 13.5647 0.0820218 13.646 0.12913 13.7165L1.32435 15.5158C1.37133 15.5866 1.42912 15.6452 1.4944 15.6882C1.55968 15.7312 1.63118 15.7579 1.7048 15.7667C1.77842 15.7755 1.85272 15.7662 1.92344 15.7394C1.99416 15.7126 2.05992 15.6688 2.11695 15.6104L13.142 4.36535C13.2436 4.26397 13.3701 4.20868 13.5006 4.20868C13.6311 4.20868 13.7576 4.26397 13.8592 4.36535L24.8847 15.6104C24.9417 15.6688 25.0073 15.7127 25.0779 15.7396C25.1486 15.7665 25.2228 15.7759 25.2963 15.7673C25.3699 15.7586 25.4414 15.7321 25.5067 15.6893C25.5719 15.6465 25.6298 15.5881 25.6769 15.5176L26.8721 13.7183C26.9191 13.6474 26.9544 13.5657 26.9759 13.4778C26.9974 13.39 27.0046 13.2977 26.9972 13.2064C26.9898 13.1151 26.9679 13.0265 26.9327 12.9457C26.8976 12.8649 26.8499 12.7935 26.7924 12.7356Z" fill="white"/>
</svg>
