<svg width="358" height="64" viewBox="0 0 358 64" fill="none" xmlns="http://www.w3.org/2000/svg">
<rect width="358" height="64" rx="7" fill="#EF2F50" fill-opacity="0.92"/>
<rect x="240" y="9" width="113.826" height="41" rx="18" fill="#EF2F50"/>
<path d="M23.0795 21H22.0227C21.9602 20.696 21.8509 20.429 21.6946 20.1989C21.5412 19.9688 21.3537 19.7756 21.1321 19.6193C20.9134 19.4602 20.6705 19.3409 20.4034 19.2614C20.1364 19.1818 19.858 19.142 19.5682 19.142C19.0398 19.142 18.5611 19.2756 18.1321 19.5426C17.706 19.8097 17.3665 20.2031 17.1136 20.723C16.8636 21.2429 16.7386 21.8807 16.7386 22.6364C16.7386 23.392 16.8636 24.0298 17.1136 24.5497C17.3665 25.0696 17.706 25.4631 18.1321 25.7301C18.5611 25.9972 19.0398 26.1307 19.5682 26.1307C19.858 26.1307 20.1364 26.0909 20.4034 26.0114C20.6705 25.9318 20.9134 25.8139 21.1321 25.6577C21.3537 25.4986 21.5412 25.304 21.6946 25.0739C21.8509 24.8409 21.9602 24.5739 22.0227 24.2727H23.0795C23 24.7187 22.8551 25.1179 22.6449 25.4702C22.4347 25.8224 22.1733 26.1222 21.8608 26.3693C21.5483 26.6136 21.1974 26.7997 20.8082 26.9276C20.4219 27.0554 20.0085 27.1193 19.5682 27.1193C18.8239 27.1193 18.1619 26.9375 17.5824 26.5739C17.0028 26.2102 16.5469 25.6932 16.2145 25.0227C15.8821 24.3523 15.7159 23.5568 15.7159 22.6364C15.7159 21.7159 15.8821 20.9205 16.2145 20.25C16.5469 19.5795 17.0028 19.0625 17.5824 18.6989C18.1619 18.3352 18.8239 18.1534 19.5682 18.1534C20.0085 18.1534 20.4219 18.2173 20.8082 18.3452C21.1974 18.473 21.5483 18.6605 21.8608 18.9077C22.1733 19.152 22.4347 19.4503 22.6449 19.8026C22.8551 20.152 23 20.5511 23.0795 21ZM27.31 27.1364C26.7191 27.1364 26.2006 26.9957 25.7546 26.7145C25.3114 26.4332 24.9648 26.0398 24.7148 25.5341C24.4677 25.0284 24.3441 24.4375 24.3441 23.7614C24.3441 23.0795 24.4677 22.4844 24.7148 21.9759C24.9648 21.4673 25.3114 21.0724 25.7546 20.7912C26.2006 20.5099 26.7191 20.3693 27.31 20.3693C27.9009 20.3693 28.418 20.5099 28.8612 20.7912C29.3072 21.0724 29.6538 21.4673 29.9009 21.9759C30.1509 22.4844 30.2759 23.0795 30.2759 23.7614C30.2759 24.4375 30.1509 25.0284 29.9009 25.5341C29.6538 26.0398 29.3072 26.4332 28.8612 26.7145C28.418 26.9957 27.9009 27.1364 27.31 27.1364ZM27.31 26.233C27.7589 26.233 28.1282 26.1179 28.418 25.8878C28.7077 25.6577 28.9222 25.3551 29.0614 24.9801C29.2006 24.6051 29.2702 24.1989 29.2702 23.7614C29.2702 23.3239 29.2006 22.9162 29.0614 22.5384C28.9222 22.1605 28.7077 21.8551 28.418 21.6222C28.1282 21.3892 27.7589 21.2727 27.31 21.2727C26.8612 21.2727 26.4918 21.3892 26.2021 21.6222C25.9123 21.8551 25.6978 22.1605 25.5586 22.5384C25.4194 22.9162 25.3498 23.3239 25.3498 23.7614C25.3498 24.1989 25.4194 24.6051 25.5586 24.9801C25.6978 25.3551 25.9123 25.6577 26.2021 25.8878C26.4918 26.1179 26.8612 26.233 27.31 26.233ZM32.8168 23.0625V27H31.8111V20.4545H32.7827V21.4773H32.8679C33.0213 21.1449 33.2543 20.8778 33.5668 20.6761C33.8793 20.4716 34.2827 20.3693 34.777 20.3693C35.2202 20.3693 35.608 20.4602 35.9403 20.642C36.2727 20.821 36.5313 21.0938 36.7159 21.4602C36.9006 21.8239 36.9929 22.2841 36.9929 22.8409V27H35.9872V22.9091C35.9872 22.3949 35.8537 21.9943 35.5866 21.7074C35.3196 21.4176 34.9531 21.2727 34.4872 21.2727C34.1662 21.2727 33.8793 21.3423 33.6264 21.4815C33.3764 21.6207 33.179 21.8239 33.0341 22.0909C32.8892 22.358 32.8168 22.6818 32.8168 23.0625ZM39.8363 23.0625V27H38.8306V20.4545H39.8022V21.4773H39.8874C40.0408 21.1449 40.2738 20.8778 40.5863 20.6761C40.8988 20.4716 41.3022 20.3693 41.7965 20.3693C42.2397 20.3693 42.6275 20.4602 42.9599 20.642C43.2923 20.821 43.5508 21.0938 43.7354 21.4602C43.9201 21.8239 44.0124 22.2841 44.0124 22.8409V27H43.0067V22.9091C43.0067 22.3949 42.8732 21.9943 42.6062 21.7074C42.3391 21.4176 41.9727 21.2727 41.5067 21.2727C41.1857 21.2727 40.8988 21.3423 40.646 21.4815C40.396 21.6207 40.1985 21.8239 40.0536 22.0909C39.9087 22.358 39.8363 22.6818 39.8363 23.0625ZM48.5945 27.1364C47.9638 27.1364 47.4197 26.9972 46.9624 26.7188C46.5078 26.4375 46.157 26.0455 45.9098 25.5426C45.6655 25.0369 45.5433 24.4489 45.5433 23.7784C45.5433 23.108 45.6655 22.517 45.9098 22.0057C46.157 21.4915 46.5007 21.0909 46.9411 20.804C47.3842 20.5142 47.9013 20.3693 48.4922 20.3693C48.8331 20.3693 49.1697 20.4261 49.5021 20.5398C49.8345 20.6534 50.1371 20.8381 50.4098 21.0938C50.6825 21.3466 50.8999 21.6818 51.0618 22.0994C51.2237 22.517 51.3047 23.0312 51.3047 23.642V24.0682H46.2592V23.1989H50.282C50.282 22.8295 50.2081 22.5 50.0604 22.2102C49.9155 21.9205 49.7081 21.6918 49.4382 21.5241C49.1712 21.3565 48.8558 21.2727 48.4922 21.2727C48.0916 21.2727 47.745 21.3722 47.4524 21.571C47.1626 21.767 46.9396 22.0227 46.7834 22.3381C46.6271 22.6534 46.549 22.9915 46.549 23.3523V23.9318C46.549 24.4261 46.6342 24.8452 46.8047 25.1889C46.978 25.5298 47.218 25.7898 47.5249 25.9688C47.8317 26.1449 48.1882 26.233 48.5945 26.233C48.8587 26.233 49.0973 26.196 49.3104 26.1222C49.5263 26.0455 49.7124 25.9318 49.8686 25.7812C50.0249 25.6278 50.1456 25.4375 50.2308 25.2102L51.2024 25.483C51.1001 25.8125 50.9283 26.1023 50.6868 26.3523C50.4453 26.5994 50.147 26.7926 49.7919 26.9318C49.4368 27.0682 49.0376 27.1364 48.5945 27.1364ZM55.4936 27.1364C54.88 27.1364 54.3516 26.9915 53.9084 26.7017C53.4652 26.4119 53.1243 26.0128 52.8857 25.5043C52.647 24.9957 52.5277 24.4148 52.5277 23.7614C52.5277 23.0966 52.6499 22.5099 52.8942 22.0014C53.1413 21.4901 53.4851 21.0909 53.9254 20.804C54.3686 20.5142 54.8857 20.3693 55.4766 20.3693C55.9368 20.3693 56.3516 20.4545 56.7209 20.625C57.0902 20.7955 57.3928 21.0341 57.6286 21.3409C57.8643 21.6477 58.0107 22.0057 58.0675 22.4148H57.0618C56.9851 22.1165 56.8146 21.8523 56.5504 21.6222C56.2891 21.3892 55.9368 21.2727 55.4936 21.2727C55.1016 21.2727 54.7578 21.375 54.4624 21.5795C54.1697 21.7812 53.9411 22.0668 53.7763 22.4361C53.6143 22.8026 53.5334 23.233 53.5334 23.7273C53.5334 24.233 53.6129 24.6733 53.772 25.0483C53.9339 25.4233 54.1612 25.7145 54.4538 25.9219C54.7493 26.1293 55.0959 26.233 55.4936 26.233C55.755 26.233 55.9922 26.1875 56.2053 26.0966C56.4183 26.0057 56.5987 25.875 56.7464 25.7045C56.8942 25.5341 56.9993 25.3295 57.0618 25.0909H58.0675C58.0107 25.4773 57.87 25.8253 57.6456 26.1349C57.424 26.4418 57.13 26.6861 56.7635 26.8679C56.3999 27.0469 55.9766 27.1364 55.4936 27.1364ZM62.3842 20.4545V21.3068H58.9922V20.4545H62.3842ZM59.9808 18.8864H60.9865V25.125C60.9865 25.4091 61.0277 25.6222 61.1101 25.7642C61.1953 25.9034 61.3033 25.9972 61.4339 26.0455C61.5675 26.0909 61.7081 26.1136 61.8558 26.1136C61.9666 26.1136 62.0575 26.108 62.1286 26.0966C62.1996 26.0824 62.2564 26.071 62.299 26.0625L62.5036 26.9659C62.4354 26.9915 62.3402 27.017 62.218 27.0426C62.0959 27.071 61.9411 27.0852 61.7536 27.0852C61.4695 27.0852 61.1911 27.0241 60.9183 26.902C60.6484 26.7798 60.424 26.5938 60.245 26.3438C60.0689 26.0938 59.9808 25.7784 59.9808 25.3977V18.8864ZM68.755 27L66.7607 20.4545H67.8175L69.2322 25.4659H69.3004L70.6982 20.4545H71.772L73.1527 25.4489H73.2209L74.6357 20.4545H75.6925L73.6982 27H72.7095L71.2777 21.9716H71.1754L69.7436 27H68.755ZM77.022 27V20.4545H78.0277V27H77.022ZM77.5334 19.3636C77.3374 19.3636 77.1683 19.2969 77.0263 19.1634C76.8871 19.0298 76.8175 18.8693 76.8175 18.6818C76.8175 18.4943 76.8871 18.3338 77.0263 18.2003C77.1683 18.0668 77.3374 18 77.5334 18C77.7294 18 77.897 18.0668 78.0362 18.2003C78.1783 18.3338 78.2493 18.4943 78.2493 18.6818C78.2493 18.8693 78.1783 19.0298 78.0362 19.1634C77.897 19.2969 77.7294 19.3636 77.5334 19.3636ZM82.7163 20.4545V21.3068H79.3242V20.4545H82.7163ZM80.3129 18.8864H81.3185V25.125C81.3185 25.4091 81.3597 25.6222 81.4421 25.7642C81.5273 25.9034 81.6353 25.9972 81.766 26.0455C81.8995 26.0909 82.0401 26.1136 82.1879 26.1136C82.2987 26.1136 82.3896 26.108 82.4606 26.0966C82.5316 26.0824 82.5884 26.071 82.631 26.0625L82.8356 26.9659C82.7674 26.9915 82.6722 27.017 82.5501 27.0426C82.4279 27.071 82.2731 27.0852 82.0856 27.0852C81.8015 27.0852 81.5231 27.0241 81.2504 26.902C80.9805 26.7798 80.756 26.5938 80.5771 26.3438C80.4009 26.0938 80.3129 25.7784 80.3129 25.3977V18.8864ZM85.3754 23.0625V27H84.3697V18.2727H85.3754V21.4773H85.4606C85.614 21.1392 85.8441 20.8707 86.1509 20.6719C86.4606 20.4702 86.8725 20.3693 87.3867 20.3693C87.8327 20.3693 88.2234 20.4588 88.5586 20.6378C88.8938 20.8139 89.1538 21.0852 89.3384 21.4517C89.5259 21.8153 89.6197 22.2784 89.6197 22.8409V27H88.614V22.9091C88.614 22.3892 88.479 21.9872 88.2092 21.7031C87.9421 21.4162 87.5714 21.2727 87.0969 21.2727C86.7674 21.2727 86.4719 21.3423 86.2106 21.4815C85.9521 21.6207 85.7475 21.8239 85.5969 22.0909C85.4492 22.358 85.3754 22.6818 85.3754 23.0625ZM97.4936 27.1364C96.9027 27.1364 96.3842 26.9957 95.9382 26.7145C95.495 26.4332 95.1484 26.0398 94.8984 25.5341C94.6513 25.0284 94.5277 24.4375 94.5277 23.7614C94.5277 23.0795 94.6513 22.4844 94.8984 21.9759C95.1484 21.4673 95.495 21.0724 95.9382 20.7912C96.3842 20.5099 96.9027 20.3693 97.4936 20.3693C98.0845 20.3693 98.6016 20.5099 99.0447 20.7912C99.4908 21.0724 99.8374 21.4673 100.085 21.9759C100.335 22.4844 100.46 23.0795 100.46 23.7614C100.46 24.4375 100.335 25.0284 100.085 25.5341C99.8374 26.0398 99.4908 26.4332 99.0447 26.7145C98.6016 26.9957 98.0845 27.1364 97.4936 27.1364ZM97.4936 26.233C97.9425 26.233 98.3118 26.1179 98.6016 25.8878C98.8913 25.6577 99.1058 25.3551 99.245 24.9801C99.3842 24.6051 99.4538 24.1989 99.4538 23.7614C99.4538 23.3239 99.3842 22.9162 99.245 22.5384C99.1058 22.1605 98.8913 21.8551 98.6016 21.6222C98.3118 21.3892 97.9425 21.2727 97.4936 21.2727C97.0447 21.2727 96.6754 21.3892 96.3857 21.6222C96.0959 21.8551 95.8814 22.1605 95.7422 22.5384C95.603 22.9162 95.5334 23.3239 95.5334 23.7614C95.5334 24.1989 95.603 24.6051 95.7422 24.9801C95.8814 25.3551 96.0959 25.6577 96.3857 25.8878C96.6754 26.1179 97.0447 26.233 97.4936 26.233ZM104.841 20.4545V21.3068H101.449V20.4545H104.841ZM102.438 18.8864H103.444V25.125C103.444 25.4091 103.485 25.6222 103.567 25.7642C103.652 25.9034 103.76 25.9972 103.891 26.0455C104.025 26.0909 104.165 26.1136 104.313 26.1136C104.424 26.1136 104.515 26.108 104.586 26.0966C104.657 26.0824 104.713 26.071 104.756 26.0625L104.961 26.9659C104.892 26.9915 104.797 27.017 104.675 27.0426C104.553 27.071 104.398 27.0852 104.211 27.0852C103.926 27.0852 103.648 27.0241 103.375 26.902C103.105 26.7798 102.881 26.5938 102.702 26.3438C102.526 26.0938 102.438 25.7784 102.438 25.3977V18.8864ZM107.5 23.0625V27H106.495V18.2727H107.5V21.4773H107.586C107.739 21.1392 107.969 20.8707 108.276 20.6719C108.586 20.4702 108.998 20.3693 109.512 20.3693C109.958 20.3693 110.348 20.4588 110.684 20.6378C111.019 20.8139 111.279 21.0852 111.463 21.4517C111.651 21.8153 111.745 22.2784 111.745 22.8409V27H110.739V22.9091C110.739 22.3892 110.604 21.9872 110.334 21.7031C110.067 21.4162 109.696 21.2727 109.222 21.2727C108.892 21.2727 108.597 21.3423 108.336 21.4815C108.077 21.6207 107.873 21.8239 107.722 22.0909C107.574 22.358 107.5 22.6818 107.5 23.0625ZM116.329 27.1364C115.698 27.1364 115.154 26.9972 114.697 26.7188C114.242 26.4375 113.891 26.0455 113.644 25.5426C113.4 25.0369 113.278 24.4489 113.278 23.7784C113.278 23.108 113.4 22.517 113.644 22.0057C113.891 21.4915 114.235 21.0909 114.675 20.804C115.119 20.5142 115.636 20.3693 116.227 20.3693C116.567 20.3693 116.904 20.4261 117.237 20.5398C117.569 20.6534 117.871 20.8381 118.144 21.0938C118.417 21.3466 118.634 21.6818 118.796 22.0994C118.958 22.517 119.039 23.0312 119.039 23.642V24.0682H113.994V23.1989H118.016C118.016 22.8295 117.942 22.5 117.795 22.2102C117.65 21.9205 117.442 21.6918 117.173 21.5241C116.906 21.3565 116.59 21.2727 116.227 21.2727C115.826 21.2727 115.479 21.3722 115.187 21.571C114.897 21.767 114.674 22.0227 114.518 22.3381C114.362 22.6534 114.283 22.9915 114.283 23.3523V23.9318C114.283 24.4261 114.369 24.8452 114.539 25.1889C114.712 25.5298 114.952 25.7898 115.259 25.9688C115.566 26.1449 115.923 26.233 116.329 26.233C116.593 26.233 116.832 26.196 117.045 26.1222C117.261 26.0455 117.447 25.9318 117.603 25.7812C117.759 25.6278 117.88 25.4375 117.965 25.2102L118.937 25.483C118.835 25.8125 118.663 26.1023 118.421 26.3523C118.18 26.5994 117.881 26.7926 117.526 26.9318C117.171 27.0682 116.772 27.1364 116.329 27.1364ZM120.569 27V20.4545H121.54V21.4432H121.609C121.728 21.1193 121.944 20.8565 122.256 20.6548C122.569 20.4531 122.921 20.3523 123.313 20.3523C123.387 20.3523 123.479 20.3537 123.59 20.3565C123.701 20.3594 123.785 20.3636 123.842 20.3693V21.392C123.808 21.3835 123.729 21.3707 123.607 21.3537C123.488 21.3338 123.362 21.3239 123.228 21.3239C122.91 21.3239 122.626 21.3906 122.376 21.5241C122.129 21.6548 121.933 21.8366 121.788 22.0696C121.646 22.2997 121.575 22.5625 121.575 22.858V27H120.569ZM128.409 29.4545V20.4545H129.38V21.4943H129.5C129.574 21.3807 129.676 21.2358 129.806 21.0597C129.94 20.8807 130.13 20.7216 130.377 20.5824C130.627 20.4403 130.966 20.3693 131.392 20.3693C131.943 20.3693 132.429 20.5071 132.849 20.7827C133.27 21.0582 133.598 21.4489 133.833 21.9545C134.069 22.4602 134.187 23.0568 134.187 23.7443C134.187 24.4375 134.069 25.0384 133.833 25.5469C133.598 26.0526 133.271 26.4446 132.853 26.723C132.436 26.9986 131.954 27.1364 131.409 27.1364C130.988 27.1364 130.652 27.0668 130.399 26.9276C130.146 26.7855 129.951 26.625 129.815 26.446C129.679 26.2642 129.574 26.1136 129.5 25.9943H129.414V29.4545H128.409ZM129.397 23.7273C129.397 24.2216 129.47 24.6577 129.615 25.0355C129.76 25.4105 129.971 25.7045 130.25 25.9176C130.528 26.1278 130.869 26.233 131.272 26.233C131.693 26.233 132.044 26.1222 132.325 25.9006C132.609 25.6761 132.822 25.375 132.964 24.9972C133.109 24.6165 133.181 24.1932 133.181 23.7273C133.181 23.267 133.11 22.8523 132.968 22.483C132.829 22.1108 132.618 21.8168 132.333 21.6009C132.052 21.3821 131.699 21.2727 131.272 21.2727C130.863 21.2727 130.52 21.3764 130.241 21.5838C129.963 21.7884 129.752 22.0753 129.61 22.4446C129.468 22.8111 129.397 23.2386 129.397 23.7273ZM136.727 18.2727V27H135.721V18.2727H136.727ZM140.495 27.1534C140.08 27.1534 139.704 27.0753 139.366 26.919C139.028 26.7599 138.759 26.5312 138.56 26.233C138.362 25.9318 138.262 25.5682 138.262 25.142C138.262 24.767 138.336 24.4631 138.484 24.2301C138.631 23.9943 138.829 23.8097 139.076 23.6761C139.323 23.5426 139.596 23.4432 139.894 23.3778C140.195 23.3097 140.498 23.2557 140.802 23.2159C141.2 23.1648 141.522 23.1264 141.769 23.1009C142.019 23.0724 142.201 23.0256 142.315 22.9602C142.431 22.8949 142.489 22.7812 142.489 22.6193V22.5852C142.489 22.1648 142.374 21.8381 142.144 21.6051C141.917 21.3722 141.572 21.2557 141.109 21.2557C140.629 21.2557 140.252 21.3608 139.979 21.571C139.707 21.7812 139.515 22.0057 139.404 22.2443L138.45 21.9034C138.62 21.5057 138.847 21.196 139.131 20.9744C139.418 20.75 139.731 20.5937 140.069 20.5057C140.41 20.4148 140.745 20.3693 141.075 20.3693C141.285 20.3693 141.526 20.3949 141.799 20.446C142.075 20.4943 142.34 20.5952 142.596 20.7486C142.854 20.902 143.069 21.1335 143.239 21.4432C143.41 21.7528 143.495 22.1676 143.495 22.6875V27H142.489V26.1136H142.438C142.37 26.2557 142.256 26.4077 142.097 26.5696C141.938 26.7315 141.727 26.8693 141.462 26.983C141.198 27.0966 140.876 27.1534 140.495 27.1534ZM140.648 26.25C141.046 26.25 141.381 26.1719 141.654 26.0156C141.93 25.8594 142.137 25.6577 142.276 25.4105C142.418 25.1634 142.489 24.9034 142.489 24.6307V23.7102C142.447 23.7614 142.353 23.8082 142.208 23.8509C142.066 23.8906 141.901 23.9261 141.714 23.9574C141.529 23.9858 141.349 24.0114 141.173 24.0341C140.999 24.054 140.859 24.071 140.751 24.0852C140.489 24.1193 140.245 24.1747 140.018 24.2514C139.793 24.3253 139.612 24.4375 139.472 24.5881C139.336 24.7358 139.268 24.9375 139.268 25.1932C139.268 25.5426 139.397 25.8068 139.656 25.9858C139.917 26.1619 140.248 26.25 140.648 26.25ZM145.744 29.4545C145.574 29.4545 145.422 29.4403 145.288 29.4119C145.154 29.3864 145.062 29.3608 145.011 29.3352L145.267 28.4489C145.511 28.5114 145.727 28.5341 145.914 28.517C146.102 28.5 146.268 28.4162 146.413 28.2656C146.561 28.1179 146.696 27.8778 146.818 27.5455L147.005 27.0341L144.585 20.4545H145.676L147.483 25.6705H147.551L149.358 20.4545H150.449L147.67 27.9545C147.545 28.2926 147.39 28.5724 147.206 28.794C147.021 29.0185 146.806 29.1847 146.562 29.2926C146.321 29.4006 146.048 29.4545 145.744 29.4545ZM154.286 27.1364C153.655 27.1364 153.111 26.9972 152.654 26.7188C152.199 26.4375 151.848 26.0455 151.601 25.5426C151.357 25.0369 151.235 24.4489 151.235 23.7784C151.235 23.108 151.357 22.517 151.601 22.0057C151.848 21.4915 152.192 21.0909 152.632 20.804C153.076 20.5142 153.593 20.3693 154.184 20.3693C154.525 20.3693 154.861 20.4261 155.194 20.5398C155.526 20.6534 155.828 20.8381 156.101 21.0938C156.374 21.3466 156.591 21.6818 156.753 22.0994C156.915 22.517 156.996 23.0312 156.996 23.642V24.0682H151.951V23.1989H155.973C155.973 22.8295 155.9 22.5 155.752 22.2102C155.607 21.9205 155.4 21.6918 155.13 21.5241C154.863 21.3565 154.547 21.2727 154.184 21.2727C153.783 21.2727 153.436 21.3722 153.144 21.571C152.854 21.767 152.631 22.0227 152.475 22.3381C152.319 22.6534 152.24 22.9915 152.24 23.3523V23.9318C152.24 24.4261 152.326 24.8452 152.496 25.1889C152.669 25.5298 152.909 25.7898 153.216 25.9688C153.523 26.1449 153.88 26.233 154.286 26.233C154.55 26.233 154.789 26.196 155.002 26.1222C155.218 26.0455 155.404 25.9318 155.56 25.7812C155.716 25.6278 155.837 25.4375 155.922 25.2102L156.894 25.483C156.792 25.8125 156.62 26.1023 156.378 26.3523C156.137 26.5994 155.838 26.7926 155.483 26.9318C155.128 27.0682 154.729 27.1364 154.286 27.1364ZM158.526 27V20.4545H159.498V21.4432H159.566C159.685 21.1193 159.901 20.8565 160.213 20.6548C160.526 20.4531 160.878 20.3523 161.27 20.3523C161.344 20.3523 161.436 20.3537 161.547 20.3565C161.658 20.3594 161.742 20.3636 161.799 20.3693V21.392C161.765 21.3835 161.686 21.3707 161.564 21.3537C161.445 21.3338 161.319 21.3239 161.185 21.3239C160.867 21.3239 160.583 21.3906 160.333 21.5241C160.086 21.6548 159.89 21.8366 159.745 22.0696C159.603 22.2997 159.532 22.5625 159.532 22.858V27H158.526ZM167.627 21.9205L166.724 22.1761C166.667 22.0256 166.583 21.8793 166.472 21.7372C166.364 21.5923 166.217 21.473 166.029 21.3793C165.842 21.2855 165.602 21.2386 165.309 21.2386C164.908 21.2386 164.575 21.331 164.308 21.5156C164.043 21.6974 163.911 21.929 163.911 22.2102C163.911 22.4602 164.002 22.6577 164.184 22.8026C164.366 22.9474 164.65 23.0682 165.036 23.1648L166.008 23.4034C166.593 23.5455 167.029 23.7628 167.316 24.0554C167.603 24.3452 167.746 24.7187 167.746 25.1761C167.746 25.5511 167.638 25.8864 167.423 26.1818C167.21 26.4773 166.911 26.7102 166.528 26.8807C166.144 27.0511 165.698 27.1364 165.19 27.1364C164.522 27.1364 163.969 26.9915 163.532 26.7017C163.094 26.4119 162.817 25.9886 162.701 25.4318L163.656 25.1932C163.746 25.5455 163.918 25.8097 164.171 25.9858C164.427 26.1619 164.761 26.25 165.173 26.25C165.641 26.25 166.013 26.1506 166.289 25.9517C166.567 25.75 166.707 25.5085 166.707 25.2273C166.707 25 166.627 24.8097 166.468 24.6562C166.309 24.5 166.065 24.3835 165.735 24.3068L164.644 24.0511C164.045 23.9091 163.604 23.6889 163.323 23.3906C163.045 23.0895 162.906 22.7131 162.906 22.2614C162.906 21.892 163.009 21.5653 163.217 21.2812C163.427 20.9972 163.712 20.7741 164.073 20.6122C164.437 20.4503 164.849 20.3693 165.309 20.3693C165.957 20.3693 166.465 20.5114 166.835 20.7955C167.207 21.0795 167.471 21.4545 167.627 21.9205ZM172.772 27V18.2727H173.777V21.4943H173.863C173.936 21.3807 174.039 21.2358 174.169 21.0597C174.303 20.8807 174.493 20.7216 174.74 20.5824C174.99 20.4403 175.328 20.3693 175.755 20.3693C176.306 20.3693 176.792 20.5071 177.212 20.7827C177.632 21.0582 177.961 21.4489 178.196 21.9545C178.432 22.4602 178.55 23.0568 178.55 23.7443C178.55 24.4375 178.432 25.0384 178.196 25.5469C177.961 26.0526 177.634 26.4446 177.216 26.723C176.799 26.9986 176.317 27.1364 175.772 27.1364C175.351 27.1364 175.015 27.0668 174.762 26.9276C174.509 26.7855 174.314 26.625 174.178 26.446C174.042 26.2642 173.936 26.1136 173.863 25.9943H173.743V27H172.772ZM173.76 23.7273C173.76 24.2216 173.833 24.6577 173.978 25.0355C174.123 25.4105 174.334 25.7045 174.613 25.9176C174.891 26.1278 175.232 26.233 175.635 26.233C176.056 26.233 176.407 26.1222 176.688 25.9006C176.972 25.6761 177.185 25.375 177.327 24.9972C177.472 24.6165 177.544 24.1932 177.544 23.7273C177.544 23.267 177.473 22.8523 177.331 22.483C177.192 22.1108 176.98 21.8168 176.696 21.6009C176.415 21.3821 176.061 21.2727 175.635 21.2727C175.226 21.2727 174.882 21.3764 174.604 21.5838C174.326 21.7884 174.115 22.0753 173.973 22.4446C173.831 22.8111 173.76 23.2386 173.76 23.7273ZM180.502 29.4545C180.331 29.4545 180.179 29.4403 180.046 29.4119C179.912 29.3864 179.82 29.3608 179.769 29.3352L180.025 28.4489C180.269 28.5114 180.485 28.5341 180.672 28.517C180.86 28.5 181.026 28.4162 181.171 28.2656C181.319 28.1179 181.453 27.8778 181.576 27.5455L181.763 27.0341L179.343 20.4545H180.434L182.24 25.6705H182.309L184.115 20.4545H185.206L182.428 27.9545C182.303 28.2926 182.148 28.5724 181.963 28.794C181.779 29.0185 181.564 29.1847 181.32 29.2926C181.078 29.4006 180.806 29.4545 180.502 29.4545ZM16.9261 38.0625V42H15.9205V33.2727H16.9261V36.4773H17.0114C17.1648 36.1392 17.3949 35.8707 17.7017 35.6719C18.0114 35.4702 18.4233 35.3693 18.9375 35.3693C19.3835 35.3693 19.7741 35.4588 20.1094 35.6378C20.4446 35.8139 20.7045 36.0852 20.8892 36.4517C21.0767 36.8153 21.1705 37.2784 21.1705 37.8409V42H20.1648V37.9091C20.1648 37.3892 20.0298 36.9872 19.7599 36.7031C19.4929 36.4162 19.1222 36.2727 18.6477 36.2727C18.3182 36.2727 18.0227 36.3423 17.7614 36.4815C17.5028 36.6207 17.2983 36.8239 17.1477 37.0909C17 37.358 16.9261 37.6818 16.9261 38.0625ZM25.6694 42.1364C25.0785 42.1364 24.56 41.9957 24.114 41.7145C23.6708 41.4332 23.3242 41.0398 23.0742 40.5341C22.8271 40.0284 22.7035 39.4375 22.7035 38.7614C22.7035 38.0795 22.8271 37.4844 23.0742 36.9759C23.3242 36.4673 23.6708 36.0724 24.114 35.7912C24.56 35.5099 25.0785 35.3693 25.6694 35.3693C26.2603 35.3693 26.7773 35.5099 27.2205 35.7912C27.6665 36.0724 28.0131 36.4673 28.2603 36.9759C28.5103 37.4844 28.6353 38.0795 28.6353 38.7614C28.6353 39.4375 28.5103 40.0284 28.2603 40.5341C28.0131 41.0398 27.6665 41.4332 27.2205 41.7145C26.7773 41.9957 26.2603 42.1364 25.6694 42.1364ZM25.6694 41.233C26.1183 41.233 26.4876 41.1179 26.7773 40.8878C27.0671 40.6577 27.2816 40.3551 27.4208 39.9801C27.56 39.6051 27.6296 39.1989 27.6296 38.7614C27.6296 38.3239 27.56 37.9162 27.4208 37.5384C27.2816 37.1605 27.0671 36.8551 26.7773 36.6222C26.4876 36.3892 26.1183 36.2727 25.6694 36.2727C25.2205 36.2727 24.8512 36.3892 24.5614 36.6222C24.2717 36.8551 24.0572 37.1605 23.918 37.5384C23.7788 37.9162 23.7092 38.3239 23.7092 38.7614C23.7092 39.1989 23.7788 39.6051 23.918 39.9801C24.0572 40.3551 24.2717 40.6577 24.5614 40.8878C24.8512 41.1179 25.2205 41.233 25.6694 41.233ZM34.8068 36.9205L33.9034 37.1761C33.8466 37.0256 33.7628 36.8793 33.652 36.7372C33.544 36.5923 33.3963 36.473 33.2088 36.3793C33.0213 36.2855 32.7812 36.2386 32.4886 36.2386C32.0881 36.2386 31.7543 36.331 31.4872 36.5156C31.223 36.6974 31.0909 36.929 31.0909 37.2102C31.0909 37.4602 31.1818 37.6577 31.3636 37.8026C31.5455 37.9474 31.8295 38.0682 32.2159 38.1648L33.1875 38.4034C33.7727 38.5455 34.2088 38.7628 34.4957 39.0554C34.7827 39.3452 34.9261 39.7187 34.9261 40.1761C34.9261 40.5511 34.8182 40.8864 34.6023 41.1818C34.3892 41.4773 34.0909 41.7102 33.7074 41.8807C33.3239 42.0511 32.8778 42.1364 32.3693 42.1364C31.7017 42.1364 31.1491 41.9915 30.7116 41.7017C30.2741 41.4119 29.9972 40.9886 29.8807 40.4318L30.8352 40.1932C30.9261 40.5455 31.098 40.8097 31.3509 40.9858C31.6065 41.1619 31.9403 41.25 32.3523 41.25C32.821 41.25 33.1932 41.1506 33.4688 40.9517C33.7472 40.75 33.8864 40.5085 33.8864 40.2273C33.8864 40 33.8068 39.8097 33.6477 39.6562C33.4886 39.5 33.2443 39.3835 32.9148 39.3068L31.8239 39.0511C31.2244 38.9091 30.7841 38.6889 30.5028 38.3906C30.2244 38.0895 30.0852 37.7131 30.0852 37.2614C30.0852 36.892 30.1889 36.5653 30.3963 36.2812C30.6065 35.9972 30.892 35.7741 31.2528 35.6122C31.6165 35.4503 32.0284 35.3693 32.4886 35.3693C33.1364 35.3693 33.6449 35.5114 34.0142 35.7955C34.3864 36.0795 34.6506 36.4545 34.8068 36.9205ZM39.2866 35.4545V36.3068H35.8945V35.4545H39.2866ZM36.8832 33.8864H37.8888V40.125C37.8888 40.4091 37.93 40.6222 38.0124 40.7642C38.0977 40.9034 38.2056 40.9972 38.3363 41.0455C38.4698 41.0909 38.6104 41.1136 38.7582 41.1136C38.869 41.1136 38.9599 41.108 39.0309 41.0966C39.1019 41.0824 39.1587 41.071 39.2013 41.0625L39.4059 41.9659C39.3377 41.9915 39.2425 42.017 39.1204 42.0426C38.9982 42.071 38.8434 42.0852 38.6559 42.0852C38.3718 42.0852 38.0934 42.0241 37.8207 41.902C37.5508 41.7798 37.3263 41.5938 37.1474 41.3438C36.9712 41.0938 36.8832 40.7784 36.8832 40.3977V33.8864ZM40.7994 42V35.4545H41.805V42H40.7994ZM41.3107 34.3636C41.1147 34.3636 40.9457 34.2969 40.8036 34.1634C40.6644 34.0298 40.5948 33.8693 40.5948 33.6818C40.5948 33.4943 40.6644 33.3338 40.8036 33.2003C40.9457 33.0668 41.1147 33 41.3107 33C41.5067 33 41.6744 33.0668 41.8136 33.2003C41.9556 33.3338 42.0266 33.4943 42.0266 33.6818C42.0266 33.8693 41.9556 34.0298 41.8136 34.1634C41.6744 34.2969 41.5067 34.3636 41.3107 34.3636ZM44.6527 38.0625V42H43.647V35.4545H44.6186V36.4773H44.7038C44.8572 36.1449 45.0902 35.8778 45.4027 35.6761C45.7152 35.4716 46.1186 35.3693 46.6129 35.3693C47.0561 35.3693 47.4439 35.4602 47.7763 35.642C48.1087 35.821 48.3672 36.0938 48.5518 36.4602C48.7365 36.8239 48.8288 37.2841 48.8288 37.8409V42H47.8232V37.9091C47.8232 37.3949 47.6896 36.9943 47.4226 36.7074C47.1555 36.4176 46.7891 36.2727 46.3232 36.2727C46.0021 36.2727 45.7152 36.3423 45.4624 36.4815C45.2124 36.6207 45.0149 36.8239 44.87 37.0909C44.7251 37.358 44.6527 37.6818 44.6527 38.0625ZM53.3086 44.5909C52.8228 44.5909 52.4052 44.5284 52.0558 44.4034C51.7063 44.2812 51.4151 44.1193 51.1822 43.9176C50.9521 43.7188 50.7688 43.5057 50.6325 43.2784L51.4336 42.7159C51.5245 42.8352 51.6396 42.9716 51.7788 43.125C51.918 43.2812 52.1083 43.4162 52.3498 43.5298C52.5941 43.6463 52.9137 43.7045 53.3086 43.7045C53.837 43.7045 54.2731 43.5767 54.6168 43.321C54.9606 43.0653 55.1325 42.6648 55.1325 42.1193V40.7898H55.0472C54.9734 40.9091 54.8683 41.0568 54.7319 41.233C54.5984 41.4062 54.4052 41.5611 54.1523 41.6974C53.9023 41.831 53.5643 41.8977 53.1381 41.8977C52.6097 41.8977 52.1353 41.7727 51.7148 41.5227C51.2972 41.2727 50.9663 40.9091 50.7219 40.4318C50.4805 39.9545 50.3597 39.375 50.3597 38.6932C50.3597 38.0227 50.4776 37.4389 50.7134 36.9418C50.9492 36.4418 51.2773 36.0554 51.6978 35.7827C52.1183 35.5071 52.604 35.3693 53.1552 35.3693C53.5813 35.3693 53.9194 35.4403 54.1694 35.5824C54.4222 35.7216 54.6154 35.8807 54.7489 36.0597C54.8853 36.2358 54.9904 36.3807 55.0643 36.4943H55.1665V35.4545H56.1381V42.1875C56.1381 42.75 56.0103 43.2074 55.7546 43.5597C55.5018 43.9148 55.1609 44.1747 54.7319 44.3395C54.3058 44.5071 53.8313 44.5909 53.3086 44.5909ZM53.2745 40.9943C53.6779 40.9943 54.0188 40.902 54.2972 40.7173C54.5756 40.5327 54.7873 40.267 54.9322 39.9205C55.0771 39.5739 55.1495 39.1591 55.1495 38.6761C55.1495 38.2045 55.0785 37.7884 54.9364 37.4276C54.7944 37.0668 54.5842 36.7841 54.3058 36.5795C54.0273 36.375 53.6836 36.2727 53.2745 36.2727C52.8484 36.2727 52.4933 36.3807 52.2092 36.5966C51.9279 36.8125 51.7163 37.1023 51.5742 37.4659C51.435 37.8295 51.3654 38.233 51.3654 38.6761C51.3654 39.1307 51.4364 39.5327 51.5785 39.8821C51.7234 40.2287 51.9364 40.5014 52.2177 40.7003C52.5018 40.8963 52.854 40.9943 53.2745 40.9943ZM62.0018 44.4545C61.8313 44.4545 61.6793 44.4403 61.5458 44.4119C61.4123 44.3864 61.32 44.3608 61.2688 44.3352L61.5245 43.4489C61.7688 43.5114 61.9847 43.5341 62.1722 43.517C62.3597 43.5 62.5259 43.4162 62.6708 43.2656C62.8185 43.1179 62.9535 42.8778 63.0756 42.5455L63.2631 42.0341L60.8427 35.4545H61.9336L63.7404 40.6705H63.8086L65.6154 35.4545H66.7063L63.9279 42.9545C63.8029 43.2926 63.6481 43.5724 63.4634 43.794C63.2788 44.0185 63.0643 44.1847 62.82 44.2926C62.5785 44.4006 62.3058 44.4545 62.0018 44.4545ZM70.4585 42.1364C69.8675 42.1364 69.3491 41.9957 68.9031 41.7145C68.4599 41.4332 68.1133 41.0398 67.8633 40.5341C67.6161 40.0284 67.4925 39.4375 67.4925 38.7614C67.4925 38.0795 67.6161 37.4844 67.8633 36.9759C68.1133 36.4673 68.4599 36.0724 68.9031 35.7912C69.3491 35.5099 69.8675 35.3693 70.4585 35.3693C71.0494 35.3693 71.5664 35.5099 72.0096 35.7912C72.4556 36.0724 72.8022 36.4673 73.0494 36.9759C73.2994 37.4844 73.4244 38.0795 73.4244 38.7614C73.4244 39.4375 73.2994 40.0284 73.0494 40.5341C72.8022 41.0398 72.4556 41.4332 72.0096 41.7145C71.5664 41.9957 71.0494 42.1364 70.4585 42.1364ZM70.4585 41.233C70.9073 41.233 71.2766 41.1179 71.5664 40.8878C71.8562 40.6577 72.0707 40.3551 72.2099 39.9801C72.3491 39.6051 72.4187 39.1989 72.4187 38.7614C72.4187 38.3239 72.3491 37.9162 72.2099 37.5384C72.0707 37.1605 71.8562 36.8551 71.5664 36.6222C71.2766 36.3892 70.9073 36.2727 70.4585 36.2727C70.0096 36.2727 69.6403 36.3892 69.3505 36.6222C69.0607 36.8551 68.8462 37.1605 68.707 37.5384C68.5678 37.9162 68.4982 38.3239 68.4982 38.7614C68.4982 39.1989 68.5678 39.6051 68.707 39.9801C68.8462 40.3551 69.0607 40.6577 69.3505 40.8878C69.6403 41.1179 70.0096 41.233 70.4585 41.233ZM79.0845 39.3239V35.4545H80.0902V42H79.0845V40.892H79.0163C78.8629 41.2244 78.6243 41.5071 78.3004 41.7401C77.9766 41.9702 77.5675 42.0852 77.0732 42.0852C76.6641 42.0852 76.3004 41.9957 75.9822 41.8168C75.6641 41.6349 75.4141 41.3622 75.2322 40.9986C75.0504 40.6321 74.9595 40.1705 74.9595 39.6136V35.4545H75.9652V39.5455C75.9652 40.0227 76.0987 40.4034 76.3658 40.6875C76.6357 40.9716 76.9794 41.1136 77.397 41.1136C77.647 41.1136 77.9013 41.0497 78.1598 40.9219C78.4212 40.794 78.6399 40.598 78.8161 40.3338C78.995 40.0696 79.0845 39.733 79.0845 39.3239ZM81.9322 42V35.4545H82.9038V36.4432H82.9719C83.0913 36.1193 83.3072 35.8565 83.6197 35.6548C83.9322 35.4531 84.2844 35.3523 84.6765 35.3523C84.7504 35.3523 84.8427 35.3537 84.9535 35.3565C85.0643 35.3594 85.1481 35.3636 85.2049 35.3693V36.392C85.1708 36.3835 85.0927 36.3707 84.9705 36.3537C84.8512 36.3338 84.7248 36.3239 84.5913 36.3239C84.2731 36.3239 83.989 36.3906 83.739 36.5241C83.4918 36.6548 83.2958 36.8366 83.1509 37.0696C83.0089 37.2997 82.9379 37.5625 82.9379 37.858V42H81.9322ZM92.6868 35.4545V36.3068H89.1584V35.4545H92.6868ZM90.2152 42V34.5511C90.2152 34.1761 90.3033 33.8636 90.4794 33.6136C90.6555 33.3636 90.8842 33.1761 91.1655 33.0511C91.4467 32.9261 91.7436 32.8636 92.0561 32.8636C92.3033 32.8636 92.505 32.8835 92.6612 32.9233C92.8175 32.9631 92.9339 33 93.0107 33.0341L92.7209 33.9034C92.6697 33.8864 92.5987 33.8651 92.5078 33.8395C92.4197 33.8139 92.3033 33.8011 92.1584 33.8011C91.826 33.8011 91.5859 33.8849 91.4382 34.0526C91.2933 34.2202 91.2209 34.4659 91.2209 34.7898V42H90.2152ZM95.8349 42.1534C95.4201 42.1534 95.0437 42.0753 94.7056 41.919C94.3675 41.7599 94.0991 41.5312 93.9002 41.233C93.7013 40.9318 93.6019 40.5682 93.6019 40.142C93.6019 39.767 93.6758 39.4631 93.8235 39.2301C93.9712 38.9943 94.1687 38.8097 94.4158 38.6761C94.663 38.5426 94.9357 38.4432 95.234 38.3778C95.5352 38.3097 95.8377 38.2557 96.1417 38.2159C96.5394 38.1648 96.8619 38.1264 97.109 38.1009C97.359 38.0724 97.5408 38.0256 97.6545 37.9602C97.771 37.8949 97.8292 37.7812 97.8292 37.6193V37.5852C97.8292 37.1648 97.7141 36.8381 97.484 36.6051C97.2567 36.3722 96.9116 36.2557 96.4485 36.2557C95.9684 36.2557 95.592 36.3608 95.3192 36.571C95.0465 36.7812 94.8548 37.0057 94.744 37.2443L93.7894 36.9034C93.9599 36.5057 94.1871 36.196 94.4712 35.9744C94.7582 35.75 95.0707 35.5937 95.4087 35.5057C95.7496 35.4148 96.0849 35.3693 96.4144 35.3693C96.6246 35.3693 96.8661 35.3949 97.1388 35.446C97.4144 35.4943 97.68 35.5952 97.9357 35.7486C98.1942 35.902 98.4087 36.1335 98.5792 36.4432C98.7496 36.7528 98.8349 37.1676 98.8349 37.6875V42H97.8292V41.1136H97.7781C97.7099 41.2557 97.5962 41.4077 97.4371 41.5696C97.2781 41.7315 97.0664 41.8693 96.8022 41.983C96.538 42.0966 96.2156 42.1534 95.8349 42.1534ZM95.9883 41.25C96.386 41.25 96.7212 41.1719 96.994 41.0156C97.2695 40.8594 97.4769 40.6577 97.6161 40.4105C97.7582 40.1634 97.8292 39.9034 97.8292 39.6307V38.7102C97.7866 38.7614 97.6928 38.8082 97.5479 38.8509C97.4059 38.8906 97.2411 38.9261 97.0536 38.9574C96.869 38.9858 96.6886 39.0114 96.5124 39.0341C96.3391 39.054 96.1985 39.071 96.0906 39.0852C95.8292 39.1193 95.5849 39.1747 95.3576 39.2514C95.1332 39.3253 94.9513 39.4375 94.8121 39.5881C94.6758 39.7358 94.6076 39.9375 94.6076 40.1932C94.6076 40.5426 94.7369 40.8068 94.9954 40.9858C95.2567 41.1619 95.5877 41.25 95.9883 41.25ZM105.788 35.4545L103.368 42H102.345L99.9247 35.4545H101.016L102.822 40.6705H102.891L104.697 35.4545H105.788ZM109.54 42.1364C108.95 42.1364 108.431 41.9957 107.985 41.7145C107.542 41.4332 107.195 41.0398 106.945 40.5341C106.698 40.0284 106.575 39.4375 106.575 38.7614C106.575 38.0795 106.698 37.4844 106.945 36.9759C107.195 36.4673 107.542 36.0724 107.985 35.7912C108.431 35.5099 108.95 35.3693 109.54 35.3693C110.131 35.3693 110.648 35.5099 111.092 35.7912C111.538 36.0724 111.884 36.4673 112.131 36.9759C112.381 37.4844 112.506 38.0795 112.506 38.7614C112.506 39.4375 112.381 40.0284 112.131 40.5341C111.884 41.0398 111.538 41.4332 111.092 41.7145C110.648 41.9957 110.131 42.1364 109.54 42.1364ZM109.54 41.233C109.989 41.233 110.359 41.1179 110.648 40.8878C110.938 40.6577 111.153 40.3551 111.292 39.9801C111.431 39.6051 111.501 39.1989 111.501 38.7614C111.501 38.3239 111.431 37.9162 111.292 37.5384C111.153 37.1605 110.938 36.8551 110.648 36.6222C110.359 36.3892 109.989 36.2727 109.54 36.2727C109.092 36.2727 108.722 36.3892 108.433 36.6222C108.143 36.8551 107.928 37.1605 107.789 37.5384C107.65 37.9162 107.58 38.3239 107.58 38.7614C107.58 39.1989 107.65 39.6051 107.789 39.9801C107.928 40.3551 108.143 40.6577 108.433 40.8878C108.722 41.1179 109.092 41.233 109.54 41.233ZM118.167 39.3239V35.4545H119.172V42H118.167V40.892H118.098C117.945 41.2244 117.706 41.5071 117.382 41.7401C117.059 41.9702 116.65 42.0852 116.155 42.0852C115.746 42.0852 115.382 41.9957 115.064 41.8168C114.746 41.6349 114.496 41.3622 114.314 40.9986C114.132 40.6321 114.042 40.1705 114.042 39.6136V35.4545H115.047V39.5455C115.047 40.0227 115.181 40.4034 115.448 40.6875C115.718 40.9716 116.061 41.1136 116.479 41.1136C116.729 41.1136 116.983 41.0497 117.242 40.9219C117.503 40.794 117.722 40.598 117.898 40.3338C118.077 40.0696 118.167 39.733 118.167 39.3239ZM121.014 42V35.4545H121.986V36.4432H122.054C122.173 36.1193 122.389 35.8565 122.702 35.6548C123.014 35.4531 123.366 35.3523 123.759 35.3523C123.832 35.3523 123.925 35.3537 124.036 35.3565C124.146 35.3594 124.23 35.3636 124.287 35.3693V36.392C124.253 36.3835 124.175 36.3707 124.053 36.3537C123.933 36.3338 123.807 36.3239 123.673 36.3239C123.355 36.3239 123.071 36.3906 122.821 36.5241C122.574 36.6548 122.378 36.8366 122.233 37.0696C122.091 37.2997 122.02 37.5625 122.02 37.858V42H121.014ZM125.479 42V35.4545H126.485V42H125.479ZM125.99 34.3636C125.794 34.3636 125.625 34.2969 125.483 34.1634C125.344 34.0298 125.275 33.8693 125.275 33.6818C125.275 33.4943 125.344 33.3338 125.483 33.2003C125.625 33.0668 125.794 33 125.99 33C126.186 33 126.354 33.0668 126.493 33.2003C126.635 33.3338 126.706 33.4943 126.706 33.6818C126.706 33.8693 126.635 34.0298 126.493 34.1634C126.354 34.2969 126.186 34.3636 125.99 34.3636ZM131.173 35.4545V36.3068H127.781V35.4545H131.173ZM128.77 33.8864H129.776V40.125C129.776 40.4091 129.817 40.6222 129.899 40.7642C129.984 40.9034 130.092 40.9972 130.223 41.0455C130.357 41.0909 130.497 41.1136 130.645 41.1136C130.756 41.1136 130.847 41.108 130.918 41.0966C130.989 41.0824 131.045 41.071 131.088 41.0625L131.293 41.9659C131.224 41.9915 131.129 42.017 131.007 42.0426C130.885 42.071 130.73 42.0852 130.543 42.0852C130.259 42.0852 129.98 42.0241 129.707 41.902C129.438 41.7798 129.213 41.5938 129.034 41.3438C128.858 41.0938 128.77 40.7784 128.77 40.3977V33.8864ZM135.36 42.1364C134.729 42.1364 134.185 41.9972 133.728 41.7188C133.273 41.4375 132.923 41.0455 132.675 40.5426C132.431 40.0369 132.309 39.4489 132.309 38.7784C132.309 38.108 132.431 37.517 132.675 37.0057C132.923 36.4915 133.266 36.0909 133.707 35.804C134.15 35.5142 134.667 35.3693 135.258 35.3693C135.599 35.3693 135.935 35.4261 136.268 35.5398C136.6 35.6534 136.903 35.8381 137.175 36.0938C137.448 36.3466 137.665 36.6818 137.827 37.0994C137.989 37.517 138.07 38.0312 138.07 38.642V39.0682H133.025V38.1989H137.048C137.048 37.8295 136.974 37.5 136.826 37.2102C136.681 36.9205 136.474 36.6918 136.204 36.5241C135.937 36.3565 135.621 36.2727 135.258 36.2727C134.857 36.2727 134.511 36.3722 134.218 36.571C133.928 36.767 133.705 37.0227 133.549 37.3381C133.393 37.6534 133.315 37.9915 133.315 38.3523V38.9318C133.315 39.4261 133.4 39.8452 133.57 40.1889C133.744 40.5298 133.984 40.7898 134.29 40.9688C134.597 41.1449 134.954 41.233 135.36 41.233C135.624 41.233 135.863 41.196 136.076 41.1222C136.292 41.0455 136.478 40.9318 136.634 40.7812C136.79 40.6278 136.911 40.4375 136.996 40.2102L137.968 40.483C137.866 40.8125 137.694 41.1023 137.452 41.3523C137.211 41.5994 136.913 41.7926 136.558 41.9318C136.202 42.0682 135.803 42.1364 135.36 42.1364ZM145.617 44.5909C145.131 44.5909 144.714 44.5284 144.364 44.4034C144.015 44.2812 143.724 44.1193 143.491 43.9176C143.261 43.7188 143.077 43.5057 142.941 43.2784L143.742 42.7159C143.833 42.8352 143.948 42.9716 144.087 43.125C144.227 43.2812 144.417 43.4162 144.658 43.5298C144.903 43.6463 145.222 43.7045 145.617 43.7045C146.146 43.7045 146.582 43.5767 146.925 43.321C147.269 43.0653 147.441 42.6648 147.441 42.1193V40.7898H147.356C147.282 40.9091 147.177 41.0568 147.04 41.233C146.907 41.4062 146.714 41.5611 146.461 41.6974C146.211 41.831 145.873 41.8977 145.447 41.8977C144.918 41.8977 144.444 41.7727 144.023 41.5227C143.606 41.2727 143.275 40.9091 143.031 40.4318C142.789 39.9545 142.668 39.375 142.668 38.6932C142.668 38.0227 142.786 37.4389 143.022 36.9418C143.258 36.4418 143.586 36.0554 144.006 35.7827C144.427 35.5071 144.913 35.3693 145.464 35.3693C145.89 35.3693 146.228 35.4403 146.478 35.5824C146.731 35.7216 146.924 35.8807 147.058 36.0597C147.194 36.2358 147.299 36.3807 147.373 36.4943H147.475V35.4545H148.447V42.1875C148.447 42.75 148.319 43.2074 148.063 43.5597C147.81 43.9148 147.469 44.1747 147.04 44.3395C146.614 44.5071 146.14 44.5909 145.617 44.5909ZM145.583 40.9943C145.987 40.9943 146.327 40.902 146.606 40.7173C146.884 40.5327 147.096 40.267 147.241 39.9205C147.386 39.5739 147.458 39.1591 147.458 38.6761C147.458 38.2045 147.387 37.7884 147.245 37.4276C147.103 37.0668 146.893 36.7841 146.614 36.5795C146.336 36.375 145.992 36.2727 145.583 36.2727C145.157 36.2727 144.802 36.3807 144.518 36.5966C144.237 36.8125 144.025 37.1023 143.883 37.4659C143.744 37.8295 143.674 38.233 143.674 38.6761C143.674 39.1307 143.745 39.5327 143.887 39.8821C144.032 40.2287 144.245 40.5014 144.526 40.7003C144.81 40.8963 145.163 40.9943 145.583 40.9943ZM152.214 42.1534C151.799 42.1534 151.423 42.0753 151.085 41.919C150.746 41.7599 150.478 41.5312 150.279 41.233C150.08 40.9318 149.981 40.5682 149.981 40.142C149.981 39.767 150.055 39.4631 150.202 39.2301C150.35 38.9943 150.548 38.8097 150.795 38.6761C151.042 38.5426 151.315 38.4432 151.613 38.3778C151.914 38.3097 152.217 38.2557 152.521 38.2159C152.918 38.1648 153.241 38.1264 153.488 38.1009C153.738 38.0724 153.92 38.0256 154.033 37.9602C154.15 37.8949 154.208 37.7812 154.208 37.6193V37.5852C154.208 37.1648 154.093 36.8381 153.863 36.6051C153.636 36.3722 153.29 36.2557 152.827 36.2557C152.347 36.2557 151.971 36.3608 151.698 36.571C151.425 36.7812 151.234 37.0057 151.123 37.2443L150.168 36.9034C150.339 36.5057 150.566 36.196 150.85 35.9744C151.137 35.75 151.45 35.5937 151.788 35.5057C152.129 35.4148 152.464 35.3693 152.793 35.3693C153.004 35.3693 153.245 35.3949 153.518 35.446C153.793 35.4943 154.059 35.5952 154.315 35.7486C154.573 35.902 154.788 36.1335 154.958 36.4432C155.129 36.7528 155.214 37.1676 155.214 37.6875V42H154.208V41.1136H154.157C154.089 41.2557 153.975 41.4077 153.816 41.5696C153.657 41.7315 153.445 41.8693 153.181 41.983C152.917 42.0966 152.594 42.1534 152.214 42.1534ZM152.367 41.25C152.765 41.25 153.1 41.1719 153.373 41.0156C153.648 40.8594 153.856 40.6577 153.995 40.4105C154.137 40.1634 154.208 39.9034 154.208 39.6307V38.7102C154.165 38.7614 154.072 38.8082 153.927 38.8509C153.785 38.8906 153.62 38.9261 153.433 38.9574C153.248 38.9858 153.067 39.0114 152.891 39.0341C152.718 39.054 152.577 39.071 152.469 39.0852C152.208 39.1193 151.964 39.1747 151.737 39.2514C151.512 39.3253 151.33 39.4375 151.191 39.5881C151.055 39.7358 150.987 39.9375 150.987 40.1932C150.987 40.5426 151.116 40.8068 151.374 40.9858C151.636 41.1619 151.967 41.25 152.367 41.25ZM157.049 42V35.4545H158.021V36.4773H158.106C158.243 36.1278 158.463 35.8565 158.767 35.6634C159.071 35.4673 159.436 35.3693 159.862 35.3693C160.294 35.3693 160.653 35.4673 160.94 35.6634C161.23 35.8565 161.456 36.1278 161.618 36.4773H161.686C161.853 36.1392 162.105 35.8707 162.44 35.6719C162.775 35.4702 163.177 35.3693 163.646 35.3693C164.231 35.3693 164.71 35.5526 165.082 35.919C165.454 36.2827 165.64 36.8494 165.64 37.6193V42H164.635V37.6193C164.635 37.1364 164.502 36.7912 164.238 36.5838C163.974 36.3764 163.663 36.2727 163.305 36.2727C162.845 36.2727 162.488 36.4119 162.235 36.6903C161.983 36.9659 161.856 37.3153 161.856 37.7386V42H160.833V37.517C160.833 37.1449 160.713 36.8452 160.471 36.6179C160.23 36.3878 159.919 36.2727 159.538 36.2727C159.277 36.2727 159.032 36.3423 158.805 36.4815C158.581 36.6207 158.399 36.8139 158.26 37.0611C158.123 37.3054 158.055 37.5881 158.055 37.9091V42H157.049ZM170.223 42.1364C169.593 42.1364 169.049 41.9972 168.591 41.7188C168.137 41.4375 167.786 41.0455 167.539 40.5426C167.294 40.0369 167.172 39.4489 167.172 38.7784C167.172 38.108 167.294 37.517 167.539 37.0057C167.786 36.4915 168.13 36.0909 168.57 35.804C169.013 35.5142 169.53 35.3693 170.121 35.3693C170.462 35.3693 170.799 35.4261 171.131 35.5398C171.463 35.6534 171.766 35.8381 172.039 36.0938C172.311 36.3466 172.529 36.6818 172.691 37.0994C172.853 37.517 172.934 38.0312 172.934 38.642V39.0682H167.888V38.1989H171.911C171.911 37.8295 171.837 37.5 171.689 37.2102C171.544 36.9205 171.337 36.6918 171.067 36.5241C170.8 36.3565 170.485 36.2727 170.121 36.2727C169.721 36.2727 169.374 36.3722 169.081 36.571C168.792 36.767 168.569 37.0227 168.412 37.3381C168.256 37.6534 168.178 37.9915 168.178 38.3523V38.9318C168.178 39.4261 168.263 39.8452 168.434 40.1889C168.607 40.5298 168.847 40.7898 169.154 40.9688C169.461 41.1449 169.817 41.233 170.223 41.233C170.488 41.233 170.726 41.196 170.939 41.1222C171.155 41.0455 171.341 40.9318 171.498 40.7812C171.654 40.6278 171.775 40.4375 171.86 40.2102L172.831 40.483C172.729 40.8125 172.557 41.1023 172.316 41.3523C172.074 41.5994 171.776 41.7926 171.421 41.9318C171.066 42.0682 170.667 42.1364 170.223 42.1364ZM175.196 42.0682C174.986 42.0682 174.806 41.9929 174.655 41.8423C174.505 41.6918 174.429 41.5114 174.429 41.3011C174.429 41.0909 174.505 40.9105 174.655 40.7599C174.806 40.6094 174.986 40.5341 175.196 40.5341C175.407 40.5341 175.587 40.6094 175.738 40.7599C175.888 40.9105 175.963 41.0909 175.963 41.3011C175.963 41.4403 175.928 41.5682 175.857 41.6847C175.789 41.8011 175.696 41.8949 175.58 41.9659C175.466 42.0341 175.338 42.0682 175.196 42.0682Z" fill="#F0F0F0"/>
<path d="M261.661 34V25.2727H263.77V28.9631H263.885L266.77 25.2727H269.254L266.161 29.1676L269.31 34H266.787L264.614 30.5696L263.77 31.6349V34H261.661ZM272.17 30.267V34H270.086V27.4545H272.068V28.6562H272.14C272.285 28.2557 272.532 27.9418 272.882 27.7145C273.231 27.4844 273.647 27.3693 274.13 27.3693C274.591 27.3693 274.99 27.473 275.328 27.6804C275.669 27.8849 275.933 28.1719 276.12 28.5412C276.311 28.9077 276.404 29.3366 276.402 29.8281V34H274.318V30.2372C274.321 29.8736 274.228 29.5895 274.041 29.3849C273.856 29.1804 273.599 29.0781 273.27 29.0781C273.051 29.0781 272.858 29.1264 272.69 29.223C272.525 29.3168 272.397 29.4517 272.306 29.6278C272.218 29.804 272.173 30.017 272.17 30.267ZM280.747 34.1236C280.06 34.1236 279.469 33.983 278.974 33.7017C278.483 33.4176 278.104 33.0227 277.837 32.517C277.572 32.0085 277.44 31.419 277.44 30.7486C277.44 30.0753 277.572 29.4858 277.837 28.9801C278.104 28.4716 278.483 28.0767 278.974 27.7955C279.469 27.5114 280.06 27.3693 280.747 27.3693C281.435 27.3693 282.024 27.5114 282.516 27.7955C283.01 28.0767 283.389 28.4716 283.653 28.9801C283.92 29.4858 284.054 30.0753 284.054 30.7486C284.054 31.419 283.92 32.0085 283.653 32.517C283.389 33.0227 283.01 33.4176 282.516 33.7017C282.024 33.983 281.435 34.1236 280.747 34.1236ZM280.76 32.5511C281.01 32.5511 281.222 32.4744 281.395 32.321C281.568 32.1676 281.7 31.9545 281.791 31.6818C281.885 31.4091 281.932 31.0937 281.932 30.7358C281.932 30.3722 281.885 30.054 281.791 29.7812C281.7 29.5085 281.568 29.2955 281.395 29.142C281.222 28.9886 281.01 28.9119 280.76 28.9119C280.501 28.9119 280.283 28.9886 280.104 29.142C279.928 29.2955 279.793 29.5085 279.699 29.7812C279.608 30.054 279.562 30.3722 279.562 30.7358C279.562 31.0937 279.608 31.4091 279.699 31.6818C279.793 31.9545 279.928 32.1676 280.104 32.321C280.283 32.4744 280.501 32.5511 280.76 32.5511ZM286.204 34L284.499 27.4545H286.592L287.474 31.6477H287.529L288.475 27.4545H290.516L291.488 31.6179H291.543L292.4 27.4545H294.492L292.783 34H290.555L289.532 30.1861H289.46L288.437 34H286.204ZM297.907 25.2727H300.519L302.735 30.6761H302.837L305.053 25.2727H307.665V34H305.611V28.6392H305.539L303.442 33.9446H302.13L300.033 28.6094H299.961V34H297.907V25.2727ZM312.036 34.1236C311.349 34.1236 310.758 33.983 310.263 33.7017C309.772 33.4176 309.393 33.0227 309.126 32.517C308.862 32.0085 308.729 31.419 308.729 30.7486C308.729 30.0753 308.862 29.4858 309.126 28.9801C309.393 28.4716 309.772 28.0767 310.263 27.7955C310.758 27.5114 311.349 27.3693 312.036 27.3693C312.724 27.3693 313.313 27.5114 313.805 27.7955C314.299 28.0767 314.678 28.4716 314.942 28.9801C315.21 29.4858 315.343 30.0753 315.343 30.7486C315.343 31.419 315.21 32.0085 314.942 32.517C314.678 33.0227 314.299 33.4176 313.805 33.7017C313.313 33.983 312.724 34.1236 312.036 34.1236ZM312.049 32.5511C312.299 32.5511 312.511 32.4744 312.684 32.321C312.857 32.1676 312.989 31.9545 313.08 31.6818C313.174 31.4091 313.221 31.0937 313.221 30.7358C313.221 30.3722 313.174 30.054 313.08 29.7812C312.989 29.5085 312.857 29.2955 312.684 29.142C312.511 28.9886 312.299 28.9119 312.049 28.9119C311.79 28.9119 311.572 28.9886 311.393 29.142C311.217 29.2955 311.082 29.5085 310.988 29.7812C310.897 30.054 310.852 30.3722 310.852 30.7358C310.852 31.0937 310.897 31.4091 310.988 31.6818C311.082 31.9545 311.217 32.1676 311.393 32.321C311.572 32.4744 311.79 32.5511 312.049 32.5511ZM316.411 34V27.4545H318.435V28.6477H318.503C318.622 28.2159 318.817 27.8949 319.087 27.6847C319.357 27.4716 319.67 27.3651 320.028 27.3651C320.125 27.3651 320.224 27.3722 320.327 27.3864C320.429 27.3977 320.524 27.4162 320.612 27.4418V29.2528C320.513 29.2187 320.382 29.1918 320.22 29.1719C320.061 29.152 319.919 29.142 319.794 29.142C319.547 29.142 319.324 29.1974 319.125 29.3082C318.929 29.4162 318.774 29.5682 318.661 29.7642C318.55 29.9574 318.494 30.1847 318.494 30.446V34H316.411ZM324.181 34.1236C323.496 34.1236 322.906 33.9886 322.408 33.7188C321.914 33.446 321.533 33.0582 321.266 32.5554C321.002 32.0497 320.87 31.4489 320.87 30.7528C320.87 30.0767 321.004 29.4858 321.271 28.9801C321.538 28.4716 321.914 28.0767 322.4 27.7955C322.886 27.5114 323.458 27.3693 324.117 27.3693C324.583 27.3693 325.009 27.4418 325.396 27.5866C325.782 27.7315 326.116 27.946 326.397 28.2301C326.678 28.5142 326.897 28.8651 327.053 29.2827C327.21 29.6974 327.288 30.1733 327.288 30.7102V31.2301H321.599V30.0199H325.349C325.346 29.7983 325.293 29.6009 325.191 29.4276C325.089 29.2543 324.948 29.1193 324.769 29.0227C324.593 28.9233 324.39 28.8736 324.16 28.8736C323.927 28.8736 323.718 28.9261 323.533 29.0312C323.349 29.1335 323.202 29.2741 323.094 29.4531C322.987 29.6293 322.93 29.8295 322.924 30.054V31.2855C322.924 31.5526 322.977 31.7869 323.082 31.9886C323.187 32.1875 323.336 32.3423 323.529 32.4531C323.722 32.5639 323.952 32.6193 324.219 32.6193C324.404 32.6193 324.572 32.5937 324.722 32.5426C324.873 32.4915 325.002 32.4162 325.11 32.3168C325.218 32.2173 325.299 32.0952 325.353 31.9503L327.266 32.0057C327.187 32.4347 327.012 32.8082 326.742 33.1264C326.475 33.4418 326.124 33.6875 325.69 33.8636C325.255 34.0369 324.752 34.1236 324.181 34.1236Z" fill="#F0F0F0"/>
<path d="M340.006 30.5019H331.344C331.154 30.5019 331 30.7703 331 31.1013V33.8986C331 34.2296 331.154 34.498 331.344 34.498H340.006V36.7987C340.006 37.8668 340.747 38.4017 341.181 37.6465L343.65 33.3477C343.918 32.8795 343.918 32.1204 343.65 31.6523L341.181 27.3535C340.747 26.5983 340.006 27.1332 340.006 28.2013V30.5019Z" fill="#F0F0F0"/>
</svg>
