<svg width="33" height="36" viewBox="0 0 33 36" fill="none" xmlns="http://www.w3.org/2000/svg">
<path d="M16.5073 17.2941C15.6533 17.2941 14.9604 18.0492 14.9604 18.9816C15.0339 24.0616 14.4358 28.9589 13.1751 33.8562C12.9991 34.5396 13.3136 36 14.6652 36C15.3407 36 15.9614 35.5134 16.1535 34.7681C17.0255 31.3995 18.1541 25.9502 18.0536 18.9816C18.0542 18.0499 17.362 17.2941 16.5073 17.2941ZM16.4519 11.5474C12.5034 11.5425 9.74804 14.857 9.80283 18.6553C9.85117 22.0261 9.56113 25.399 8.94108 28.6784C8.7677 29.591 9.30653 30.4847 10.1425 30.6724C10.9836 30.8602 11.797 30.2745 11.9704 29.3618C12.6369 25.8398 12.9482 22.2195 12.8966 18.6026C12.8702 16.778 14.1805 14.9119 16.4061 14.9224C18.4242 14.9555 20.0897 16.7041 20.12 18.8227C20.1696 22.2012 19.9388 25.5959 19.4361 28.916C19.2962 29.8343 19.8673 30.7034 20.7097 30.8552C21.9969 31.0894 22.4377 29.7935 22.4874 29.4652C23.021 25.9474 23.2647 22.3488 23.2137 18.7699C23.157 14.8465 20.1238 11.6065 16.4519 11.5474ZM9.31749 10.1566C8.65362 9.57023 7.6823 9.67851 7.14153 10.4013C5.49022 12.6162 4.60269 15.4132 4.64394 18.2763C4.68197 20.9187 4.48474 23.5687 4.05677 26.1548C3.90594 27.0724 4.46347 27.9499 5.30459 28.1159C6.60076 28.362 7.04936 27.0745 7.10221 26.7546C7.56563 23.9534 7.77898 21.0832 7.73773 18.2236C7.70743 16.1227 8.3307 14.1539 9.54243 12.5304C10.0806 11.8076 9.98008 10.7452 9.31749 10.1566ZM16.3733 5.77406C15.38 5.74523 14.3836 5.87531 13.4226 6.12351C12.5917 6.33867 12.0774 7.24711 12.2733 8.15484C12.4706 9.06117 13.3046 9.61945 14.1354 9.40851C14.8476 9.225 15.5837 9.14343 16.3269 9.14906C21.1886 9.22851 25.2041 13.4733 25.2782 18.6117C25.3162 21.2752 25.1957 23.9632 24.9186 26.6013C24.8219 27.5273 25.431 28.3648 26.2792 28.4702C27.3568 28.6073 27.9234 27.6349 27.9924 26.9859C28.2852 24.1888 28.412 21.374 28.372 18.559C28.2714 11.6156 22.8889 5.87953 16.3733 5.77406ZM32.6201 14.3135C32.4358 13.4051 31.6205 12.8229 30.7761 13.0289C29.9421 13.23 29.4149 14.13 29.5992 15.0405C29.9028 16.5459 29.9157 17.6709 29.9021 19.3718C29.895 20.3048 30.5821 21.0656 31.4361 21.0734H31.449C32.2979 21.0734 32.9888 20.3273 32.9959 19.3999C33.0075 17.8404 33.0217 16.2984 32.6201 14.3135ZM30.0343 7.93476C26.8954 3.05578 21.759 0.0906985 16.294 0.00140162C11.7957 -0.0576609 7.63524 1.75148 4.54081 5.12859C1.55209 8.3932 -0.0586144 12.7294 0.00841768 17.3426L0.000683214 18.8522C-0.0244538 19.7838 0.647156 20.5615 1.50117 20.5882C1.51599 20.5896 1.53211 20.5896 1.54758 20.5896C2.38032 20.5896 3.06804 19.8654 3.09254 18.9513L3.10285 17.2891C3.04935 13.5977 4.33778 10.1271 6.73031 7.5157C9.22855 4.78757 12.6175 3.32015 16.2489 3.3771C20.7252 3.44953 24.9327 5.87742 27.5038 9.87328C27.9943 10.6369 28.9579 10.819 29.6578 10.2853C30.3565 9.74953 30.5254 8.69695 30.0343 7.93476Z" fill="white"/>
</svg>
