<svg width="164" height="164" viewBox="0 0 164 164" fill="none" xmlns="http://www.w3.org/2000/svg">
<rect width="164" height="164" fill="#F0F0F0"/>
<rect width="390" height="844" transform="translate(-113 -274)" fill="#010103"/>
<circle cx="82" cy="82" r="80.5" fill="#010103" stroke="#EF2F50" stroke-width="3"/>
<path d="M98.0842 54.6277C90.8542 54.6277 84.883 49.125 75.793 49.125C72.426 49.125 69.41 49.8185 66.6123 51.0254C67 49.8381 67.1651 48.5667 67.0961 47.2979C66.8571 42.7992 63.7119 39.1907 59.871 39.0075C55.5545 38.8016 52 42.8437 52 47.8593C52 50.8693 53.2813 53.527 55.2381 55.128V116.203C55.2381 118.3 56.6878 120 58.4762 120H60.6349C62.4233 120 63.873 118.3 63.873 116.203V101.269C67.6928 99.3602 72.4515 97.769 79.3127 97.769C86.5428 97.769 92.5138 103.272 101.604 103.272C108.103 103.272 113.297 100.694 118.132 96.8079C119.304 95.8664 120 94.3032 120 92.638V54.1788C120 50.4779 116.726 48.0294 113.863 49.5883C109.23 52.1114 103.548 54.6277 98.0842 54.6277Z" fill="#EF2F50"/>
</svg>
