<svg width="68" height="81" viewBox="0 0 68 81" fill="none" xmlns="http://www.w3.org/2000/svg">
<path d="M46.0842 15.6277C38.8542 15.6277 32.883 10.125 23.793 10.125C20.426 10.125 17.41 10.8185 14.6123 12.0254C15 10.8381 15.1651 9.56672 15.0961 8.29786C14.8571 3.7992 11.7119 0.190737 7.871 0.00753802C3.55448 -0.198443 0 3.84365 0 8.85933C0 11.8693 1.28134 14.527 3.2381 16.128V77.2031C3.2381 79.3001 4.68782 81 6.47619 81H8.63492C10.4233 81 11.873 79.3001 11.873 77.2031V62.2687C15.6928 60.3602 20.4515 58.769 27.3127 58.769C34.5428 58.769 40.5138 64.2718 49.6038 64.2718C56.1028 64.2718 61.297 61.694 66.1323 57.8079C67.3038 56.8664 68 55.3032 68 53.638V15.1788C68 11.4779 64.7256 9.0294 61.8631 10.5883C57.2302 13.1114 51.5479 15.6277 46.0842 15.6277Z" fill="#EF2F50"/>
</svg>
