<svg width="59" height="45" viewBox="0 0 59 45" fill="none" xmlns="http://www.w3.org/2000/svg">
<path d="M39.8423 5.56465L41.4267 34.7391L40.2744 34.7068C36.4716 34.6103 32.7553 35.7361 29.4999 37.9877C26.2446 35.7361 22.5283 34.7068 18.7254 34.7068C13.9432 34.7068 10.1117 35.9613 5.76167 37.9556L9.04585 7.6875C12.0419 6.30434 15.499 5.56465 18.7255 5.56465C23.0469 5.56465 26.4751 7.10859 29.5 10.5503C32.4097 7.23727 35.6938 5.66109 39.8423 5.56465ZM59 45C56.3209 45 54.0162 44.3889 51.5962 43.1666C47.9951 41.3332 44.25 40.2395 40.2745 40.2395C36.1836 40.2395 32.4097 41.7513 29.5 45C26.5903 41.7512 22.8164 40.2395 18.7255 40.2395C14.75 40.2395 11.0049 41.3332 7.40381 43.1666C5.07032 44.3245 2.70797 45 0.144105 45H0L4.46536 4.08504C8.58499 1.47961 13.5977 0 18.351 0C22.2402 0 26.2447 0.900586 29.5 3.40957C32.7553 0.900586 36.7598 0 40.649 0C45.4023 0 50.415 1.47961 54.5346 4.08504L59 45ZM54.4483 39.7569L50.876 6.91559C47.6494 5.27508 43.8179 4.4066 40.2745 4.4066C36.2412 4.4066 32.4673 5.82187 29.5 8.94199C26.5327 5.82187 22.7589 4.4066 18.7255 4.4066C15.1821 4.4066 11.3506 5.27508 8.12402 6.91559L4.55173 39.7569C9.50681 37.4733 13.252 35.8328 18.7255 35.8328C22.6723 35.8328 26.1582 36.9585 29.5 39.3067C32.8418 36.9585 36.3276 35.8328 40.2745 35.8328C45.748 35.8328 49.4932 37.4733 54.4483 39.7569Z" fill="white"/>
</svg>
