<svg width="26" height="23" viewBox="0 0 26 23" fill="none" xmlns="http://www.w3.org/2000/svg">
<path d="M17.5576 2.84415L18.2558 17.7555L17.748 17.739C16.0722 17.6897 14.4345 18.2651 13 19.416C11.5654 18.2651 9.92772 17.739 8.25188 17.739C6.14446 17.739 4.45599 18.3802 2.53904 19.3995L3.98631 3.92917C5.30661 3.22222 6.83005 2.84415 8.25193 2.84415C10.1563 2.84415 11.667 3.63328 13 5.39236C14.2822 3.69905 15.7295 2.89345 17.5576 2.84415ZM26 23C24.8194 23 23.8037 22.6876 22.7373 22.0629C21.1504 21.1259 19.5 20.5669 17.7481 20.5669C15.9453 20.5669 14.2822 21.3396 13 23C11.7178 21.3395 10.0547 20.5669 8.25193 20.5669C6.5 20.5669 4.8496 21.1259 3.2627 22.0629C2.23438 22.6548 1.19334 23 0.0635038 23H0L1.96778 2.08791C3.78321 0.756245 5.9922 0 8.0869 0C9.80076 0 11.5655 0.4603 13 1.74267C14.4345 0.4603 16.1992 0 17.9131 0C20.0078 0 22.2168 0.756245 24.0322 2.08791L26 23ZM23.9942 20.3202L22.4199 3.53463C20.998 2.69615 19.3096 2.25226 17.7481 2.25226C15.9707 2.25226 14.3076 2.97562 13 4.57035C11.6924 2.97562 10.0293 2.25226 8.25193 2.25226C6.69042 2.25226 5.00195 2.69615 3.58008 3.53463L2.00585 20.3202C4.18944 19.153 5.83985 18.3145 8.25193 18.3145C9.99118 18.3145 11.5273 18.8899 13 20.0901C14.4727 18.8899 16.0088 18.3145 17.7481 18.3145C20.1602 18.3145 21.8106 19.153 23.9942 20.3202Z" fill="black"/>
</svg>
