<svg width="236" height="258" viewBox="0 0 236 258" fill="none" xmlns="http://www.w3.org/2000/svg">
<g clip-path="url(#clip0_2308_14)">
<path d="M223.244 0C225.012 27.3727 226.554 54.7551 227.899 82.1581C227.935 82.8927 227.971 83.6266 228.008 84.3836C228.529 94.9877 229.045 105.592 229.558 116.197C230.079 126.935 230.601 137.674 231.127 148.413C231.369 153.347 231.607 158.28 231.844 163.214C232.612 179.007 233.523 194.782 234.561 210.556C235.572 225.978 236.132 241.298 235.973 256.761C233.305 257.758 231.775 257.995 229.035 257.993C228.217 257.996 227.4 257.998 226.557 258C225.659 257.997 224.761 257.993 223.836 257.99C222.882 257.992 221.927 257.992 220.944 257.993C217.733 257.995 214.522 257.989 211.311 257.983C209.014 257.982 206.718 257.983 204.422 257.984C198.175 257.984 191.928 257.978 185.681 257.97C179.818 257.964 173.955 257.962 168.092 257.961C156.478 257.959 144.864 257.951 133.251 257.941C121.968 257.931 110.685 257.924 99.4021 257.919C98.7067 257.919 98.0119 257.918 97.2951 257.918C93.8072 257.916 90.3188 257.915 86.831 257.914C57.8875 257.902 28.9437 257.883 0 257.859C1.66523 253.01 3.80239 248.658 6.18084 244.211C6.60904 243.403 7.03725 242.595 7.4784 241.762C8.41016 240.003 9.34329 238.245 10.2776 236.488C12.818 231.708 15.3432 226.918 17.8693 222.128C18.4024 221.119 18.9354 220.109 19.4846 219.069C24.0349 210.44 28.5426 201.785 33.0405 193.122C35.9354 187.551 38.8435 181.99 41.778 176.446C42.3567 175.353 42.9354 174.259 43.5317 173.133C44.6288 171.063 45.7277 168.994 46.8286 166.927C49.3353 162.198 51.7393 157.486 53.8528 152.52C50.8751 150.759 47.8967 149 44.9182 147.24C43.661 146.496 43.661 146.496 42.3785 145.738C38.0658 143.191 33.7459 140.673 29.3743 138.256C30.4871 134.515 30.9283 134.256 33.8225 132.35C34.5442 131.867 35.2659 131.383 36.0095 130.885C36.7885 130.376 37.5675 129.866 38.3701 129.341C39.9901 128.258 41.6092 127.173 43.2276 126.087C44.0338 125.549 44.84 125.01 45.6707 124.455C48.8687 122.291 52.0078 120.034 55.1378 117.751C60.4176 113.908 65.7617 110.201 71.1562 106.564C72.2314 105.797 73.3071 105.03 74.4146 104.241C75.172 103.752 75.9289 103.263 76.7088 102.76C84.2048 97.5428 87.7058 91.1135 91.7947 82.5011C93.0125 80.0243 94.2315 77.5487 95.451 75.0731C96.0311 73.8766 96.6113 72.6807 97.2095 71.4484C99.1837 67.4418 101.269 63.5245 103.391 59.614C104.752 57.0889 106.072 54.5425 107.381 51.9832C107.79 51.1868 108.199 50.3905 108.621 49.57C109.455 47.9471 110.283 46.321 111.108 44.6923C111.513 43.9073 111.919 43.1222 112.338 42.3135C112.695 41.6133 113.052 40.9132 113.421 40.1918C114.56 38.4044 114.56 38.4044 117.497 36.2099C127.059 53.9297 127.059 53.9296 131.205 62.5447C135.023 61.4471 137.971 59.8056 141.188 57.3323C148.828 51.5291 156.669 46.0804 164.496 40.599C166.134 39.4517 166.134 39.4517 167.805 38.2812C170.712 36.248 173.622 34.2218 176.535 32.1998C177.687 31.3996 178.837 30.5978 179.987 29.7943C181.605 28.6648 183.226 27.5424 184.847 26.4202C186.254 25.4426 186.254 25.4426 187.69 24.4453C189.954 23.0427 189.954 23.0427 191.912 23.0427C191.912 22.3185 191.912 21.5943 191.912 20.8481C193.158 20.0695 193.158 20.0695 194.428 19.2751C201.085 15.0818 216.143 0 223.244 0Z" fill="#EA3857"/>
</g>
<defs>
<clipPath id="clip0_2308_14">
<rect width="236" height="258" fill="white"/>
</clipPath>
</defs>
</svg>
