<svg width="48" height="10" viewBox="0 0 48 10" fill="none" xmlns="http://www.w3.org/2000/svg">
<path d="M0.958807 0.272727H2.55682L5.33523 7.05682H5.4375L8.21591 0.272727H9.81392V9H8.56108V2.68466H8.48011L5.90625 8.98722H4.86648L2.29261 2.6804H2.21165V9H0.958807V0.272727ZM14.3832 9.1321C13.7695 9.1321 13.234 8.99148 12.7766 8.71023C12.3192 8.42898 11.9641 8.03551 11.7113 7.52983C11.4585 7.02415 11.332 6.43324 11.332 5.7571C11.332 5.07812 11.4585 4.48437 11.7113 3.97585C11.9641 3.46733 12.3192 3.07244 12.7766 2.79119C13.234 2.50994 13.7695 2.36932 14.3832 2.36932C14.9968 2.36932 15.5323 2.50994 15.9897 2.79119C16.4471 3.07244 16.8022 3.46733 17.055 3.97585C17.3079 4.48437 17.4343 5.07812 17.4343 5.7571C17.4343 6.43324 17.3079 7.02415 17.055 7.52983C16.8022 8.03551 16.4471 8.42898 15.9897 8.71023C15.5323 8.99148 14.9968 9.1321 14.3832 9.1321ZM14.3874 8.0625C14.7852 8.0625 15.1147 7.95739 15.3761 7.74716C15.6374 7.53693 15.8306 7.2571 15.9556 6.90767C16.0835 6.55824 16.1474 6.1733 16.1474 5.75284C16.1474 5.33523 16.0835 4.9517 15.9556 4.60227C15.8306 4.25 15.6374 3.96733 15.3761 3.75426C15.1147 3.54119 14.7852 3.43466 14.3874 3.43466C13.9869 3.43466 13.6545 3.54119 13.3903 3.75426C13.1289 3.96733 12.9343 4.25 12.8065 4.60227C12.6815 4.9517 12.619 5.33523 12.619 5.75284C12.619 6.1733 12.6815 6.55824 12.8065 6.90767C12.9343 7.2571 13.1289 7.53693 13.3903 7.74716C13.6545 7.95739 13.9869 8.0625 14.3874 8.0625ZM18.8565 9V2.45455H20.0881V3.49432H20.1562C20.2756 3.14205 20.4858 2.86506 20.7869 2.66335C21.0909 2.45881 21.4347 2.35653 21.8182 2.35653C21.8977 2.35653 21.9915 2.35937 22.0994 2.36506C22.2102 2.37074 22.2969 2.37784 22.3594 2.38636V3.60511C22.3082 3.59091 22.2173 3.57528 22.0866 3.55824C21.956 3.53835 21.8253 3.52841 21.6946 3.52841C21.3935 3.52841 21.125 3.59233 20.8892 3.72017C20.6563 3.84517 20.4716 4.01989 20.3352 4.24432C20.1989 4.46591 20.1307 4.71875 20.1307 5.00284V9H18.8565ZM26.0487 9.1321C25.4038 9.1321 24.8484 8.99432 24.3825 8.71875C23.9194 8.44034 23.5614 8.04972 23.3086 7.54688C23.0586 7.04119 22.9336 6.44886 22.9336 5.76989C22.9336 5.09943 23.0586 4.50852 23.3086 3.99716C23.5614 3.4858 23.9137 3.08665 24.3654 2.79972C24.82 2.51278 25.3512 2.36932 25.9592 2.36932C26.3285 2.36932 26.6864 2.4304 27.033 2.55256C27.3796 2.67472 27.6907 2.86648 27.9663 3.12784C28.2418 3.3892 28.4592 3.72869 28.6183 4.14631C28.7773 4.56108 28.8569 5.06534 28.8569 5.65909V6.1108H23.6538V5.15625H27.6083C27.6083 4.82102 27.5401 4.52415 27.4038 4.26562C27.2674 4.00426 27.0756 3.7983 26.8285 3.64773C26.5842 3.49716 26.2972 3.42188 25.9677 3.42188C25.6097 3.42188 25.2972 3.50994 25.0302 3.68608C24.766 3.85937 24.5614 4.08665 24.4165 4.3679C24.2745 4.64631 24.2035 4.94886 24.2035 5.27557V6.02131C24.2035 6.45881 24.2802 6.83097 24.4336 7.13778C24.5898 7.4446 24.8072 7.67898 25.0856 7.84091C25.364 8 25.6893 8.07955 26.0614 8.07955C26.3029 8.07955 26.5231 8.04545 26.7219 7.97727C26.9208 7.90625 27.0927 7.80114 27.2376 7.66193C27.3825 7.52273 27.4933 7.35085 27.57 7.14631L28.7759 7.36364C28.6793 7.71875 28.506 8.02983 28.256 8.29688C28.0089 8.56108 27.6978 8.76705 27.3228 8.91477C26.9506 9.05966 26.5259 9.1321 26.0487 9.1321ZM39.4165 6.04261L33.7575 8.78693V7.48295L37.9336 5.58239L37.891 5.65483V5.47159L37.9336 5.5483L33.7575 3.64347V2.34375L39.4165 5.08807V6.04261ZM47.4087 6.04261L41.7496 8.78693V7.48295L45.9258 5.58239L45.8832 5.65483V5.47159L45.9258 5.5483L41.7496 3.64347V2.34375L47.4087 5.08807V6.04261Z" fill="#EF2F50"/>
</svg>
