<svg width="36" height="29" viewBox="0 0 36 29" fill="none" xmlns="http://www.w3.org/2000/svg">
<path d="M9.35536 18.6885C8.79237 18.3837 8.26338 17.9931 7.79026 17.5168C5.13881 14.8474 5.1381 10.512 7.79026 7.8476L9.35536 18.6885ZM9.35536 18.6885C9.02312 19.0983 8.73385 19.5416 8.48885 20.0117L4.40521 21.3785C4.40502 21.3786 4.40482 21.3787 4.40463 21.3787C4.12611 21.4701 3.86153 21.2078 3.95614 20.9244L3.95648 20.9234L5.60461 15.9513L5.74045 15.5415L5.35481 15.3474L0.697311 13.0029C0.434229 12.8705 0.434229 12.4939 0.697312 12.3615L0.697744 12.3613L5.35524 10.0111L5.74031 9.81682L5.60461 9.40741L3.95693 4.4367C3.95687 4.43651 3.95681 4.43633 3.95675 4.43614C3.86363 4.15108 4.1375 3.89153 4.40355 3.97964C4.4037 3.97969 4.40386 3.97974 4.40402 3.9798L9.34718 5.63864L9.76025 5.77726L9.95406 5.38702L12.2828 0.698094C12.4157 0.430615 12.7849 0.43839 12.91 0.694891L12.91 0.694898L12.9118 0.698524L15.2462 5.38745L15.4402 5.77726L15.853 5.63858L20.7892 3.98019C20.7895 3.98008 20.7898 3.97998 20.7901 3.97987C21.0685 3.88885 21.3328 4.15108 21.2382 4.43431L21.2381 4.4347L19.6581 9.18011C19.2898 9.24302 18.9239 9.32557 18.5643 9.43611C18.2666 8.87119 17.8897 8.33082 17.4097 7.8476C14.7562 5.17617 10.4444 5.17604 7.79066 7.84719L9.35536 18.6885ZM31.8577 18.3923L31.8165 18.7862L32.1906 18.9165C34.113 19.5856 35.5 21.4009 35.5 23.5636C35.5 26.292 33.3019 28.5 30.6 28.5H15.3C12.5981 28.5 10.4 26.292 10.4 23.5636C10.4 20.9629 12.4058 18.8555 14.9381 18.6654L15.4334 18.6282L15.3995 18.1326C15.3934 18.0447 15.3809 17.9562 15.3713 17.8893C15.3696 17.8768 15.3679 17.865 15.3664 17.8541C15.3556 17.7761 15.35 17.7226 15.35 17.6741C15.35 14.442 17.9528 11.8316 21.15 11.8316C23.496 11.8316 25.5122 13.2463 26.426 15.2745L26.6622 15.7987L27.1485 15.4921C27.6339 15.1861 28.195 15.0028 28.8 15.0028C30.5063 15.0028 31.9 16.4011 31.9 18.1271C31.9 18.1317 31.8993 18.1458 31.8903 18.1933C31.8893 18.1988 31.888 18.2055 31.8865 18.2132C31.8784 18.2545 31.8648 18.3244 31.8577 18.3923ZM11.6115 16.8102C9.76039 16.3628 8.375 14.6832 8.375 12.6794C8.375 10.3312 10.2742 8.42814 12.6 8.42814C14.1566 8.42814 15.5219 9.28647 16.2548 10.5603C14.3686 11.8788 13.0328 13.9352 12.6585 16.3084C12.2908 16.45 11.9433 16.6221 11.6115 16.8102Z" fill="black" stroke="black"/>
</svg>
