<svg width="36" height="29" viewBox="0 0 36 29" fill="none" xmlns="http://www.w3.org/2000/svg">
<path d="M32.355 18.4443C32.3662 18.3367 32.4 18.2347 32.4 18.1271C32.4 16.1281 30.7856 14.5028 28.8 14.5028C28.0912 14.5028 27.4387 14.718 26.8819 15.0691C25.8919 12.8719 23.7037 11.3316 21.15 11.3316C17.6737 11.3316 14.85 14.1687 14.85 17.6741C14.85 17.844 14.8894 18.0025 14.9006 18.1668C12.1106 18.3763 9.9 20.6981 9.9 23.5636C9.9 26.5649 12.3187 29 15.3 29H30.6C33.5812 29 36 26.5649 36 23.5636C36 21.1795 34.47 19.1804 32.355 18.4443ZM8.145 17.1644C5.68687 14.6897 5.68687 10.669 8.145 8.19996C10.6031 5.72525 14.5969 5.72525 17.055 8.19996C17.6006 8.74927 18.0056 9.38352 18.3094 10.0517C18.8606 9.84222 19.44 9.71197 20.0363 9.62703L21.7125 4.59266C21.9375 3.91877 21.3019 3.28452 20.6325 3.50537L15.6937 5.16462L13.3594 0.475688C13.05 -0.158563 12.15 -0.158563 11.835 0.475688L9.50625 5.16462L4.56187 3.50537C3.89812 3.28452 3.2625 3.92443 3.48187 4.59266L5.13 9.56473L0.4725 11.9149C-0.1575 12.232 -0.1575 13.1324 0.4725 13.4495L5.13 15.794L3.48187 20.7661C3.25687 21.44 3.8925 22.0742 4.56187 21.8533L8.8425 20.4206C9.18562 19.7184 9.63 19.0785 10.17 18.5235C9.43313 18.2177 8.74125 17.7647 8.145 17.1644ZM7.875 12.6794C7.875 14.9898 9.52312 16.9153 11.6944 17.34C12.1444 17.0738 12.6112 16.8416 13.1119 16.6774C13.4156 14.1687 14.8556 12.0055 16.9031 10.7313C16.1606 9.08338 14.5125 7.92814 12.6 7.92814C9.99562 7.92814 7.875 10.0574 7.875 12.6794Z" fill="white"/>
</svg>
