<svg width="15" height="18" viewBox="0 0 15 18" fill="none" xmlns="http://www.w3.org/2000/svg">
<path d="M7.5 18C8.68259 18 9.64185 16.9928 9.64185 15.75H5.35815C5.35815 16.9928 6.31741 18 7.5 18ZM14.7117 12.7368C14.0648 12.0069 12.8544 10.909 12.8544 7.3125C12.8544 4.58086 11.0303 2.39414 8.57076 1.85766V1.125C8.57076 0.503789 8.09129 0 7.5 0C6.90871 0 6.42924 0.503789 6.42924 1.125V1.85766C3.96965 2.39414 2.14555 4.58086 2.14555 7.3125C2.14555 10.909 0.935177 12.0069 0.288304 12.7368C0.0874113 12.9635 -0.00165095 13.2346 2.31491e-05 13.5C0.00370617 14.0766 0.43462 14.625 1.0748 14.625H13.9252C14.5654 14.625 14.9966 14.0766 15 13.5C15.0017 13.2346 14.9126 12.9632 14.7117 12.7368Z" fill="black"/>
</svg>
