<svg width="35" height="35" viewBox="0 0 35 35" fill="none" xmlns="http://www.w3.org/2000/svg">
<g clip-path="url(#clip0_0_1)">
<rect width="390" height="844" transform="translate(-27 -90)" fill="#010103"/>
<circle cx="17.5" cy="17.5" r="17.5" fill="#EF2F50"/>
<path d="M17.3588 22H13.4916V11.0909H17.3908C18.4881 11.0909 19.4327 11.3093 20.2246 11.7461C21.0165 12.1793 21.6255 12.8026 22.0516 13.6158C22.4813 14.429 22.6962 15.402 22.6962 16.5348C22.6962 17.6712 22.4813 18.6477 22.0516 19.4645C21.6255 20.2812 21.0129 20.908 20.2139 21.3448C19.4185 21.7816 18.4668 22 17.3588 22ZM15.7981 20.0238H17.2629C17.9447 20.0238 18.5182 19.9031 18.9834 19.6616C19.4522 19.4165 19.8038 19.0384 20.0381 18.527C20.2761 18.0121 20.395 17.348 20.395 16.5348C20.395 15.7287 20.2761 15.07 20.0381 14.5586C19.8038 14.0472 19.454 13.6708 18.9888 13.4293C18.5236 13.1879 17.9501 13.0671 17.2682 13.0671H15.7981V20.0238Z" fill="white"/>
</g>
<defs>
<clipPath id="clip0_0_1">
<rect width="390" height="844" fill="white" transform="translate(-27 -90)"/>
</clipPath>
</defs>
</svg>
