<svg width="10" height="6" viewBox="0 0 10 6" fill="none" xmlns="http://www.w3.org/2000/svg">
<path d="M0.236903 0.879059L0.236998 0.87897L0.943469 0.22263C1.22799 -0.0417047 1.68858 -0.0415813 1.96985 0.222541L1.96994 0.22263L4.98338 3.02224L5 3.03768L5.01662 3.02224L8.03006 0.22263C8.31458 -0.0417047 8.77516 -0.0415814 9.05644 0.222541L9.05653 0.22263L9.763 0.87897C10.0465 1.14236 10.0464 1.56726 9.7631 1.82762L9.763 1.82771L5.51167 5.77737L5.51148 5.77755C5.23341 6.0415 4.7729 6.04175 4.48833 5.77737L0.236998 1.82771C-0.0465033 1.56432 -0.0463596 1.13942 0.236903 0.879059Z" fill="white" stroke="white" stroke-width="0.0488281"/>
</svg>
