<svg width="11" height="11" viewBox="0 0 11 11" fill="none" xmlns="http://www.w3.org/2000/svg">
<path d="M5.5 0C8.53831 0 11 2.46169 11 5.5C11 8.53831 8.53831 11 5.5 11C2.46169 11 0 8.53831 0 5.5C0 2.46169 2.46169 0 5.5 0ZM8.02601 5.12298L5.02097 2.11794C4.8125 1.90948 4.4754 1.90948 4.26915 2.11794L3.89214 2.49496C3.68367 2.70343 3.68367 3.04052 3.89214 3.24677L6.14536 5.5L3.89214 7.75323C3.68367 7.96169 3.68367 8.29879 3.89214 8.50504L4.26915 8.88206C4.47762 9.09052 4.81472 9.09052 5.02097 8.88206L8.02601 5.87702C8.23448 5.66855 8.23448 5.33145 8.02601 5.12298Z" fill="#999999"/>
</svg>
