<svg width="30" height="30" viewBox="0 0 30 30" fill="none" xmlns="http://www.w3.org/2000/svg">
<path d="M15 0C23.2863 0 30 6.71371 30 15C30 23.2863 23.2863 30 15 30C6.71371 30 0 23.2863 0 15C0 6.71371 6.71371 0 15 0ZM7.98387 17.6613H15V21.9496C15 22.5968 15.7863 22.9234 16.2399 22.4637L23.1532 15.5141C23.4375 15.2298 23.4375 14.7762 23.1532 14.4919L16.2399 7.53629C15.7802 7.07661 15 7.40323 15 8.0504V12.3387H7.98387C7.58468 12.3387 7.25806 12.6653 7.25806 13.0645V16.9355C7.25806 17.3347 7.58468 17.6613 7.98387 17.6613Z" fill="#EF2F50"/>
</svg>
