<svg width="284" height="47" viewBox="0 0 284 47" fill="none" xmlns="http://www.w3.org/2000/svg">
<rect width="284" height="47" rx="7" fill="#EF2F50"/>
<path d="M94.9302 20.9567C94.8734 20.4524 94.639 20.0618 94.2271 19.7848C93.8151 19.5043 93.2967 19.364 92.6717 19.364C92.2242 19.364 91.8371 19.435 91.5104 19.5771C91.1837 19.7156 90.9298 19.9073 90.7487 20.1523C90.5712 20.3938 90.4824 20.669 90.4824 20.978C90.4824 21.2372 90.5427 21.4609 90.6635 21.6491C90.7878 21.8374 90.9494 21.9954 91.1482 22.1232C91.3506 22.2475 91.5672 22.3523 91.7981 22.4375C92.0289 22.5192 92.2508 22.5866 92.4639 22.6399L93.5293 22.9169C93.8773 23.0021 94.2342 23.1175 94.5999 23.2631C94.9657 23.4087 95.3048 23.6005 95.6173 23.8384C95.9298 24.0763 96.182 24.3711 96.3737 24.7227C96.569 25.0742 96.6667 25.495 96.6667 25.9851C96.6667 26.603 96.5069 27.1516 96.1873 27.631C95.8712 28.1104 95.4114 28.4886 94.8077 28.7656C94.2075 29.0426 93.4813 29.1811 92.629 29.1811C91.8123 29.1811 91.1056 29.0515 90.509 28.7923C89.9124 28.533 89.4454 28.1655 89.1081 27.6896C88.7707 27.2102 88.5843 26.642 88.5488 25.9851H90.2001C90.232 26.3793 90.3599 26.7077 90.5836 26.9705C90.8109 27.2298 91.1003 27.4233 91.4518 27.5511C91.807 27.6754 92.1958 27.7376 92.6184 27.7376C93.0836 27.7376 93.4973 27.6648 93.8595 27.5192C94.2253 27.37 94.5129 27.1641 94.7224 26.9013C94.932 26.6349 95.0367 26.3242 95.0367 25.9691C95.0367 25.646 94.9444 25.3814 94.7597 25.1754C94.5786 24.9695 94.3318 24.799 94.0193 24.6641C93.7104 24.5291 93.3606 24.4102 92.9699 24.3072L91.6809 23.9556C90.8073 23.7177 90.1148 23.3679 89.6035 22.9062C89.0957 22.4446 88.8418 21.8338 88.8418 21.0739C88.8418 20.4453 89.0122 19.8967 89.3531 19.4279C89.694 18.9592 90.1557 18.5952 90.7381 18.3359C91.3204 18.0732 91.9774 17.9418 92.7089 17.9418C93.4476 17.9418 94.0992 18.0714 94.6638 18.3306C95.232 18.5898 95.6795 18.9467 96.0062 19.4013C96.3329 19.8523 96.5033 20.3707 96.5175 20.9567H94.9302ZM100.28 18.0909V29H98.6336V18.0909H100.28ZM110.059 21.5373C109.956 21.2141 109.818 20.9247 109.644 20.669C109.473 20.4098 109.269 20.1896 109.031 20.0085C108.793 19.8239 108.522 19.6836 108.216 19.5877C107.914 19.4918 107.582 19.4439 107.22 19.4439C106.606 19.4439 106.052 19.6019 105.558 19.918C105.065 20.234 104.674 20.6974 104.386 21.3082C104.102 21.9155 103.96 22.6594 103.96 23.5401C103.96 24.4244 104.104 25.1719 104.392 25.7827C104.679 26.3935 105.074 26.8569 105.574 27.1729C106.075 27.489 106.645 27.647 107.284 27.647C107.877 27.647 108.394 27.5263 108.834 27.2848C109.278 27.0433 109.621 26.7024 109.862 26.2621C110.107 25.8182 110.23 25.2962 110.23 24.696L110.656 24.7759H107.534V23.4176H111.822V24.6587C111.822 25.5749 111.627 26.3704 111.237 27.0451C110.849 27.7163 110.313 28.2347 109.628 28.6005C108.946 28.9663 108.165 29.1491 107.284 29.1491C106.297 29.1491 105.43 28.9219 104.685 28.4673C103.943 28.0128 103.364 27.3683 102.948 26.5337C102.533 25.6957 102.325 24.7013 102.325 23.5508C102.325 22.6808 102.446 21.8995 102.687 21.207C102.929 20.5146 103.268 19.9268 103.705 19.4439C104.145 18.9574 104.662 18.5863 105.255 18.3306C105.851 18.0714 106.503 17.9418 107.21 17.9418C107.799 17.9418 108.348 18.0288 108.856 18.2028C109.367 18.3768 109.821 18.6236 110.219 18.9432C110.62 19.2628 110.952 19.6428 111.215 20.0831C111.478 20.5199 111.656 21.0046 111.748 21.5373H110.059ZM122.717 18.0909V29H121.204L115.659 20.9993H115.558V29H113.912V18.0909H115.435L120.986 26.1023H121.087V18.0909H122.717ZM136.103 18.0909H137.754V25.266C137.754 26.0295 137.575 26.706 137.216 27.2955C136.858 27.8814 136.353 28.343 135.703 28.6804C135.054 29.0142 134.292 29.1811 133.418 29.1811C132.548 29.1811 131.788 29.0142 131.138 28.6804C130.489 28.343 129.984 27.8814 129.626 27.2955C129.267 26.706 129.088 26.0295 129.088 25.266V18.0909H130.734V25.1328C130.734 25.6264 130.842 26.065 131.059 26.4485C131.279 26.832 131.589 27.1339 131.991 27.354C132.392 27.5707 132.868 27.679 133.418 27.679C133.972 27.679 134.45 27.5707 134.851 27.354C135.256 27.1339 135.565 26.832 135.778 26.4485C135.995 26.065 136.103 25.6264 136.103 25.1328V18.0909ZM140.147 29V18.0909H144.036C144.884 18.0909 145.588 18.2454 146.145 18.5543C146.703 18.8633 147.12 19.2859 147.397 19.8221C147.674 20.3548 147.812 20.9549 147.812 21.6225C147.812 22.2937 147.672 22.8974 147.392 23.4336C147.115 23.9663 146.696 24.3888 146.134 24.7013C145.577 25.0103 144.876 25.1648 144.03 25.1648H141.356V23.7692H143.881C144.417 23.7692 144.852 23.6768 145.186 23.4922C145.52 23.304 145.765 23.0483 145.921 22.7251C146.078 22.402 146.156 22.0344 146.156 21.6225C146.156 21.2106 146.078 20.8448 145.921 20.5252C145.765 20.2056 145.518 19.9553 145.181 19.7741C144.847 19.593 144.407 19.5025 143.86 19.5025H141.793V29H140.147Z" fill="white"/>
<path d="M180.335 11C186.964 11 192.335 16.371 192.335 23C192.335 29.629 186.964 35 180.335 35C173.706 35 168.335 29.629 168.335 23C168.335 16.371 173.706 11 180.335 11ZM174.722 25.129H180.335V28.5597C180.335 29.0774 180.964 29.3387 181.327 28.971L186.858 23.4113C187.085 23.1839 187.085 22.821 186.858 22.5935L181.327 17.029C180.959 16.6613 180.335 16.9226 180.335 17.4403V20.871H174.722C174.403 20.871 174.141 21.1323 174.141 21.4516V24.5484C174.141 24.8677 174.403 25.129 174.722 25.129Z" fill="#F3F3F3"/>
</svg>
