<svg width="93" height="91" viewBox="0 0 93 91" fill="none" xmlns="http://www.w3.org/2000/svg">
<g clip-path="url(#clip0_0_1)">
<rect width="390" height="844" transform="translate(-149 -171)" fill="#010103"/>
<ellipse cx="46.5" cy="45.5" rx="46.5" ry="45.5" fill="#23262A"/>
<path d="M59.45 16H33.55C30.4859 16 28 18.3936 28 21.3438V67.6562C28 70.6064 30.4859 73 33.55 73H59.45C62.5141 73 65 70.6064 65 67.6562V21.3438C65 18.3936 62.5141 16 59.45 16ZM46.5 69.4375C44.4534 69.4375 42.8 67.8455 42.8 65.875C42.8 63.9045 44.4534 62.3125 46.5 62.3125C48.5466 62.3125 50.2 63.9045 50.2 65.875C50.2 67.8455 48.5466 69.4375 46.5 69.4375ZM59.45 57.4141C59.45 58.1488 58.8256 58.75 58.0625 58.75H34.9375C34.1744 58.75 33.55 58.1488 33.55 57.4141V22.6797C33.55 21.9449 34.1744 21.3438 34.9375 21.3438H58.0625C58.8256 21.3438 59.45 21.9449 59.45 22.6797V57.4141Z" fill="#9E9E9E"/>
<path d="M42.75 46C43.7389 46 44.7056 45.7068 45.5279 45.1574C46.3501 44.6079 46.991 43.827 47.3694 42.9134C47.7478 41.9998 47.8469 40.9945 47.6539 40.0246C47.461 39.0546 46.9848 38.1637 46.2855 37.4645C45.5863 36.7652 44.6954 36.289 43.7255 36.0961C42.7555 35.9031 41.7502 36.0022 40.8366 36.3806C39.923 36.759 39.1421 37.3999 38.5927 38.2222C38.0432 39.0444 37.75 40.0111 37.75 41C37.75 42.3261 38.2768 43.5979 39.2145 44.5355C40.1521 45.4732 41.4239 46 42.75 46ZM46.5 48.5C46.5028 48.0825 46.6117 47.6725 46.8164 47.3086C46.6289 47.2891 46.4453 47.25 46.25 47.25H45.5977C44.7048 47.6618 43.7332 47.875 42.75 47.875C41.7668 47.875 40.7952 47.6618 39.9023 47.25H39.25C37.8577 47.2503 36.5225 47.8035 35.538 48.788C34.5535 49.7725 34.0003 51.1077 34 52.5V54.125C34 54.6223 34.1975 55.0992 34.5492 55.4508C34.9008 55.8025 35.3777 56 35.875 56H46.8477C46.623 55.6215 46.503 55.1901 46.5 54.75V48.5ZM57.75 47.25H56.5V44.125C56.5 43.2962 56.1708 42.5013 55.5847 41.9153C54.9987 41.3292 54.2038 41 53.375 41C52.5462 41 51.7513 41.3292 51.1653 41.9153C50.5792 42.5013 50.25 43.2962 50.25 44.125V47.25H49C48.6685 47.25 48.3505 47.3817 48.1161 47.6161C47.8817 47.8505 47.75 48.1685 47.75 48.5V54.75C47.75 55.0815 47.8817 55.3995 48.1161 55.6339C48.3505 55.8683 48.6685 56 49 56H57.75C58.0815 56 58.3995 55.8683 58.6339 55.6339C58.8683 55.3995 59 55.0815 59 54.75V48.5C59 48.1685 58.8683 47.8505 58.6339 47.6161C58.3995 47.3817 58.0815 47.25 57.75 47.25ZM53.375 52.875C53.1278 52.875 52.8861 52.8017 52.6805 52.6643C52.475 52.527 52.3148 52.3318 52.2201 52.1034C52.1255 51.8749 52.1008 51.6236 52.149 51.3811C52.1973 51.1387 52.3163 50.9159 52.4911 50.7411C52.6659 50.5663 52.8887 50.4473 53.1311 50.399C53.3736 50.3508 53.6249 50.3755 53.8534 50.4702C54.0818 50.5648 54.277 50.725 54.4143 50.9305C54.5517 51.1361 54.625 51.3778 54.625 51.625C54.625 51.9565 54.4933 52.2745 54.2589 52.5089C54.0245 52.7433 53.7065 52.875 53.375 52.875ZM54.625 47.25H52.125V44.125C52.125 43.7935 52.2567 43.4755 52.4911 43.2411C52.7255 43.0067 53.0435 42.875 53.375 42.875C53.7065 42.875 54.0245 43.0067 54.2589 43.2411C54.4933 43.4755 54.625 43.7935 54.625 44.125V47.25Z" fill="#D0D0D0"/>
</g>
<defs>
<clipPath id="clip0_0_1">
<rect width="390" height="844" fill="white" transform="translate(-149 -171)"/>
</clipPath>
</defs>
</svg>
