<svg width="43" height="43" viewBox="0 0 43 43" fill="none" xmlns="http://www.w3.org/2000/svg">
<rect width="43" height="43" fill="#F0F0F0"/>
<rect width="1440" height="900" transform="translate(-1240 -280)" fill="white"/>
<path d="M-1037 -59C-1037 -65.6274 -1031.63 -71 -1025 -71H188C194.627 -71 200 -65.6274 200 -59V608C200 614.627 194.627 620 188 620H-1025C-1031.63 620 -1037 614.627 -1037 608V-59Z" fill="#F3F4F6" fill-opacity="0.75"/>
<rect x="-611" y="-3" width="767" height="240" rx="16" fill="white"/>
<path d="M9.61932 43.4545V58H7.85795V45.3011H7.77273L4.22159 47.6591V45.8693L7.85795 43.4545H9.61932ZM18.4616 58.1989C17.4863 58.1989 16.6245 58.026 15.8764 57.6804C15.133 57.33 14.553 56.8494 14.1364 56.2386C13.7197 55.6231 13.5137 54.9223 13.5185 54.1364C13.5137 53.5208 13.6345 52.9527 13.8807 52.4318C14.1269 51.9062 14.4631 51.4683 14.8892 51.1179C15.3201 50.7628 15.8007 50.5379 16.331 50.4432V50.358C15.6349 50.178 15.081 49.7874 14.669 49.1861C14.2571 48.58 14.0535 47.8911 14.0582 47.1193C14.0535 46.3807 14.2405 45.7202 14.6193 45.1378C14.9981 44.5554 15.5189 44.0961 16.1818 43.7599C16.8494 43.4238 17.6094 43.2557 18.4616 43.2557C19.3045 43.2557 20.0573 43.4238 20.7202 43.7599C21.383 44.0961 21.9039 44.5554 22.2827 45.1378C22.6662 45.7202 22.8603 46.3807 22.8651 47.1193C22.8603 47.8911 22.6496 48.58 22.233 49.1861C21.821 49.7874 21.2741 50.178 20.5923 50.358V50.4432C21.1179 50.5379 21.5914 50.7628 22.0128 51.1179C22.4342 51.4683 22.7704 51.9062 23.0213 52.4318C23.2723 52.9527 23.4001 53.5208 23.4048 54.1364C23.4001 54.9223 23.187 55.6231 22.7656 56.2386C22.349 56.8494 21.7689 57.33 21.0256 57.6804C20.2869 58.026 19.4323 58.1989 18.4616 58.1989ZM18.4616 56.6364C19.1198 56.6364 19.688 56.5298 20.1662 56.3168C20.6444 56.1037 21.0137 55.803 21.2741 55.4148C21.5346 55.0265 21.6671 54.572 21.6719 54.0511C21.6671 53.5019 21.5251 53.0166 21.2457 52.5952C20.9664 52.1738 20.5852 51.8423 20.1023 51.6009C19.6241 51.3594 19.0772 51.2386 18.4616 51.2386C17.8414 51.2386 17.2874 51.3594 16.7997 51.6009C16.3168 51.8423 15.9356 52.1738 15.6562 52.5952C15.3816 53.0166 15.2467 53.5019 15.2514 54.0511C15.2467 54.572 15.3722 55.0265 15.6278 55.4148C15.8883 55.803 16.2599 56.1037 16.7429 56.3168C17.2259 56.5298 17.7988 56.6364 18.4616 56.6364ZM18.4616 49.733C18.9825 49.733 19.4441 49.6288 19.8466 49.4205C20.2538 49.2121 20.5734 48.9209 20.8054 48.5469C21.0374 48.1728 21.1558 47.7348 21.1605 47.233C21.1558 46.7405 21.0398 46.312 20.8125 45.9474C20.5852 45.5781 20.2704 45.294 19.8679 45.0952C19.4654 44.8916 18.9967 44.7898 18.4616 44.7898C17.9171 44.7898 17.4413 44.8916 17.0341 45.0952C16.6269 45.294 16.312 45.5781 16.0895 45.9474C15.867 46.312 15.758 46.7405 15.7628 47.233C15.758 47.7348 15.8693 48.1728 16.0966 48.5469C16.3286 48.9209 16.6482 49.2121 17.0554 49.4205C17.4626 49.6288 17.9313 49.733 18.4616 49.733ZM31.2972 42.7727L26.6097 60.1875H25.0756L29.7631 42.7727H31.2972ZM38 58.1989C36.9299 58.1989 36.0185 57.9077 35.2656 57.3253C34.5128 56.7382 33.9375 55.8883 33.5398 54.7756C33.142 53.6581 32.9432 52.3087 32.9432 50.7273C32.9432 49.1553 33.142 47.813 33.5398 46.7003C33.9422 45.5829 34.5199 44.7306 35.2727 44.1435C36.0303 43.5516 36.9394 43.2557 38 43.2557C39.0606 43.2557 39.9673 43.5516 40.7202 44.1435C41.4777 44.7306 42.0554 45.5829 42.4531 46.7003C42.8556 47.813 43.0568 49.1553 43.0568 50.7273C43.0568 52.3087 42.858 53.6581 42.4602 54.7756C42.0625 55.8883 41.4872 56.7382 40.7344 57.3253C39.9815 57.9077 39.0701 58.1989 38 58.1989ZM38 56.6364C39.0606 56.6364 39.8845 56.125 40.4716 55.1023C41.0587 54.0795 41.3523 52.6212 41.3523 50.7273C41.3523 49.4678 41.2173 48.3954 40.9474 47.5099C40.6823 46.6245 40.2988 45.9498 39.7969 45.4858C39.2997 45.0218 38.7008 44.7898 38 44.7898C36.9489 44.7898 36.1274 45.3082 35.5355 46.3452C34.9437 47.3774 34.6477 48.8381 34.6477 50.7273C34.6477 51.9867 34.7803 53.0568 35.0455 53.9375C35.3106 54.8182 35.6918 55.4882 36.1889 55.9474C36.6908 56.4067 37.2945 56.6364 38 56.6364ZM50.6705 58.1989C49.733 58.1989 48.8973 58.0379 48.1634 57.7159C47.4342 57.3939 46.8542 56.9465 46.4233 56.3736C45.9972 55.7959 45.7652 55.1259 45.7273 54.3636H47.517C47.5549 54.8324 47.7159 55.2372 48 55.5781C48.2841 55.9143 48.6558 56.1747 49.1151 56.3594C49.5743 56.544 50.0833 56.6364 50.642 56.6364C51.267 56.6364 51.821 56.5275 52.304 56.3097C52.7869 56.0919 53.1657 55.7888 53.4403 55.4006C53.715 55.0123 53.8523 54.5625 53.8523 54.0511C53.8523 53.5161 53.7197 53.045 53.4545 52.6378C53.1894 52.2259 52.8011 51.9039 52.2898 51.6719C51.7784 51.4399 51.1534 51.3239 50.4148 51.3239H49.25V49.7614H50.4148C50.9924 49.7614 51.4991 49.6572 51.9347 49.4489C52.375 49.2405 52.7183 48.947 52.9645 48.5682C53.2154 48.1894 53.3409 47.7443 53.3409 47.233C53.3409 46.7405 53.232 46.312 53.0142 45.9474C52.7964 45.5829 52.4886 45.2988 52.0909 45.0952C51.6979 44.8916 51.2339 44.7898 50.6989 44.7898C50.197 44.7898 49.7235 44.8821 49.2784 45.0668C48.8381 45.2467 48.4782 45.5095 48.1989 45.8551C47.9195 46.196 47.768 46.608 47.7443 47.0909H46.0398C46.0682 46.3286 46.2978 45.661 46.7287 45.0881C47.1596 44.5104 47.723 44.0606 48.419 43.7386C49.1198 43.4167 49.8892 43.2557 50.7273 43.2557C51.6269 43.2557 52.3987 43.438 53.0426 43.8026C53.6866 44.1624 54.1813 44.6383 54.527 45.2301C54.8726 45.822 55.0455 46.4612 55.0455 47.1477C55.0455 47.9669 54.83 48.6652 54.3991 49.2429C53.973 49.8205 53.393 50.2206 52.6591 50.4432V50.5568C53.5777 50.7083 54.295 51.099 54.8111 51.7287C55.3272 52.3537 55.5852 53.1278 55.5852 54.0511C55.5852 54.8419 55.3698 55.5521 54.9389 56.1818C54.5128 56.8068 53.9304 57.2992 53.1918 57.6591C52.4531 58.0189 51.6127 58.1989 50.6705 58.1989ZM63.6605 42.7727L58.973 60.1875H57.4389L62.1264 42.7727H63.6605ZM65.619 58V56.7216L70.4201 51.4659C70.9835 50.8504 71.4476 50.3153 71.8121 49.8608C72.1767 49.4015 72.4466 48.9706 72.6218 48.5682C72.8017 48.161 72.8917 47.7348 72.8917 47.2898C72.8917 46.7784 72.7686 46.3357 72.5224 45.9616C72.2809 45.5876 71.9495 45.2988 71.5281 45.0952C71.1067 44.8916 70.6332 44.7898 70.1076 44.7898C69.5489 44.7898 69.0612 44.9058 68.6445 45.1378C68.2326 45.3651 67.913 45.6847 67.6857 46.0966C67.4632 46.5085 67.3519 46.9915 67.3519 47.5455H65.6758C65.6758 46.6932 65.8723 45.9451 66.2653 45.3011C66.6583 44.6572 67.1933 44.1553 67.8704 43.7955C68.5522 43.4356 69.3169 43.2557 70.1644 43.2557C71.0167 43.2557 71.7719 43.4356 72.43 43.7955C73.0882 44.1553 73.6043 44.6406 73.9783 45.2514C74.3524 45.8622 74.5394 46.5417 74.5394 47.2898C74.5394 47.8248 74.4424 48.348 74.2482 48.8594C74.0588 49.366 73.7274 49.9318 73.2539 50.5568C72.7852 51.1771 72.1341 51.9347 71.3008 52.8295L68.0337 56.3239V56.4375H74.7951V58H65.619ZM82.4727 58.1989C81.4026 58.1989 80.4911 57.9077 79.7383 57.3253C78.9854 56.7382 78.4102 55.8883 78.0124 54.7756C77.6147 53.6581 77.4158 52.3087 77.4158 50.7273C77.4158 49.1553 77.6147 47.813 78.0124 46.7003C78.4149 45.5829 78.9925 44.7306 79.7454 44.1435C80.503 43.5516 81.4121 43.2557 82.4727 43.2557C83.5333 43.2557 84.44 43.5516 85.1928 44.1435C85.9504 44.7306 86.5281 45.5829 86.9258 46.7003C87.3282 47.813 87.5295 49.1553 87.5295 50.7273C87.5295 52.3087 87.3306 53.6581 86.9329 54.7756C86.5352 55.8883 85.9599 56.7382 85.207 57.3253C84.4542 57.9077 83.5427 58.1989 82.4727 58.1989ZM82.4727 56.6364C83.5333 56.6364 84.3571 56.125 84.9442 55.1023C85.5314 54.0795 85.8249 52.6212 85.8249 50.7273C85.8249 49.4678 85.69 48.3954 85.4201 47.5099C85.1549 46.6245 84.7714 45.9498 84.2695 45.4858C83.7724 45.0218 83.1734 44.7898 82.4727 44.7898C81.4215 44.7898 80.6 45.3082 80.0082 46.3452C79.4163 47.3774 79.1204 48.8381 79.1204 50.7273C79.1204 51.9867 79.253 53.0568 79.5181 53.9375C79.7833 54.8182 80.1644 55.4882 80.6616 55.9474C81.1635 56.4067 81.7672 56.6364 82.4727 56.6364ZM90.2283 58V56.7216L95.0295 51.4659C95.5929 50.8504 96.0569 50.3153 96.4215 49.8608C96.7861 49.4015 97.056 48.9706 97.2312 48.5682C97.4111 48.161 97.5011 47.7348 97.5011 47.2898C97.5011 46.7784 97.378 46.3357 97.1317 45.9616C96.8903 45.5876 96.5588 45.2988 96.1374 45.0952C95.716 44.8916 95.2425 44.7898 94.717 44.7898C94.1583 44.7898 93.6706 44.9058 93.2539 45.1378C92.842 45.3651 92.5224 45.6847 92.2951 46.0966C92.0726 46.5085 91.9613 46.9915 91.9613 47.5455H90.2852C90.2852 46.6932 90.4817 45.9451 90.8746 45.3011C91.2676 44.6572 91.8027 44.1553 92.4798 43.7955C93.1616 43.4356 93.9263 43.2557 94.7738 43.2557C95.6261 43.2557 96.3813 43.4356 97.0394 43.7955C97.6976 44.1553 98.2137 44.6406 98.5877 45.2514C98.9618 45.8622 99.1488 46.5417 99.1488 47.2898C99.1488 47.8248 99.0517 48.348 98.8576 48.8594C98.6682 49.366 98.3368 49.9318 97.8633 50.5568C97.3945 51.1771 96.7435 51.9347 95.9102 52.8295L92.6431 56.3239V56.4375H99.4045V58H90.2283ZM107.252 58.1989C106.315 58.1989 105.479 58.0379 104.745 57.7159C104.016 57.3939 103.436 56.9465 103.005 56.3736C102.579 55.7959 102.347 55.1259 102.309 54.3636H104.099C104.137 54.8324 104.298 55.2372 104.582 55.5781C104.866 55.9143 105.238 56.1747 105.697 56.3594C106.156 56.544 106.665 56.6364 107.224 56.6364C107.849 56.6364 108.403 56.5275 108.886 56.3097C109.369 56.0919 109.748 55.7888 110.022 55.4006C110.297 55.0123 110.434 54.5625 110.434 54.0511C110.434 53.5161 110.302 53.045 110.037 52.6378C109.771 52.2259 109.383 51.9039 108.872 51.6719C108.36 51.4399 107.735 51.3239 106.997 51.3239H105.832V49.7614H106.997C107.574 49.7614 108.081 49.6572 108.517 49.4489C108.957 49.2405 109.3 48.947 109.547 48.5682C109.797 48.1894 109.923 47.7443 109.923 47.233C109.923 46.7405 109.814 46.312 109.596 45.9474C109.378 45.5829 109.071 45.2988 108.673 45.0952C108.28 44.8916 107.816 44.7898 107.281 44.7898C106.779 44.7898 106.306 44.8821 105.86 45.0668C105.42 45.2467 105.06 45.5095 104.781 45.8551C104.502 46.196 104.35 46.608 104.326 47.0909H102.622C102.65 46.3286 102.88 45.661 103.311 45.0881C103.742 44.5104 104.305 44.0606 105.001 43.7386C105.702 43.4167 106.471 43.2557 107.309 43.2557C108.209 43.2557 108.981 43.438 109.625 43.8026C110.269 44.1624 110.763 44.6383 111.109 45.2301C111.455 45.822 111.627 46.4612 111.627 47.1477C111.627 47.9669 111.412 48.6652 110.981 49.2429C110.555 49.8205 109.975 50.2206 109.241 50.4432V50.5568C110.16 50.7083 110.877 51.099 111.393 51.7287C111.909 52.3537 112.167 53.1278 112.167 54.0511C112.167 54.8419 111.952 55.5521 111.521 56.1818C111.095 56.8068 110.512 57.2992 109.774 57.6591C109.035 58.0189 108.195 58.1989 107.252 58.1989Z" fill="#9D9D9D"/>
<path d="M-894.5 -18C-894.5 -28.7695 -885.77 -37.5 -875 -37.5H70.0001C80.7696 -37.5 89.5001 -28.7696 89.5001 -18V431C89.5001 441.77 80.7696 450.5 70.0001 450.5H-875C-885.77 450.5 -894.5 441.77 -894.5 431V-18Z" fill="white" stroke="#B8B8B8"/>
<path d="M38.9688 0H4.03125C1.80566 0 0 2.06362 0 4.60714V38.3929C0 40.9364 1.80566 43 4.03125 43H38.9688C41.1943 43 43 40.9364 43 38.3929V4.60714C43 2.06362 41.1943 0 38.9688 0ZM31.9477 27.8828C32.3508 28.3435 32.3508 29.0922 31.9477 29.5529L28.5463 33.4402C28.1432 33.9009 27.4881 33.9009 27.085 33.4402L21.5 26.9998L15.915 33.4402C15.5119 33.9009 14.8568 33.9009 14.4537 33.4402L11.0523 29.5529C10.6492 29.0922 10.6492 28.3435 11.0523 27.8828L16.6877 21.5L11.0523 15.1172C10.6492 14.6565 10.6492 13.9078 11.0523 13.4471L14.4537 9.55982C14.8568 9.09911 15.5119 9.09911 15.915 9.55982L21.5 16.0002L27.085 9.55982C27.4881 9.09911 28.1432 9.09911 28.5463 9.55982L31.9477 13.4471C32.3508 13.9078 32.3508 14.6565 31.9477 15.1172L26.3123 21.5L31.9477 27.8828Z" fill="black"/>
</svg>
