<svg width="54" height="56" viewBox="0 0 54 56" fill="none" xmlns="http://www.w3.org/2000/svg">
<rect width="54" height="56" fill="#F0F0F0"/>
<rect width="1440" height="900" transform="translate(-75 -535)" fill="white"/>
<rect x="-75" y="-535" width="202" height="900" rx="33" fill="black"/>
<path d="M19.0833 54.3333H34.5833C47.5 54.3333 52.6667 49 52.6667 35.6667V19.6667C52.6667 6.33333 47.5 1 34.5833 1H19.0833C6.16667 1 1 6.33333 1 19.6667V35.6667C1 49 6.16667 54.3333 19.0833 54.3333Z" stroke="#EF2F50" stroke-width="1.5" stroke-linecap="round" stroke-linejoin="round"/>
<g clip-path="url(#clip0_0_1)">
<path d="M39 23.5938C39 28.34 35.1524 32.1875 30.4062 32.1875C29.8584 32.1875 29.3228 32.1356 28.8034 32.0376L27.6309 33.3567C27.521 33.4804 27.3861 33.5794 27.2351 33.6472C27.0841 33.715 26.9205 33.75 26.755 33.75H24.9375V35.7031C24.9375 36.3503 24.4128 36.875 23.7656 36.875H21.8125V38.8281C21.8125 39.4753 21.2878 40 20.6406 40H15.1719C14.5247 40 14 39.4753 14 38.8281V35.0167C14 34.7059 14.1235 34.4078 14.3432 34.188L22.2437 26.2875C21.9643 25.4401 21.8125 24.5347 21.8125 23.5938C21.8125 18.8476 25.66 15 30.4062 15C35.1664 15 39 18.8335 39 23.5938ZM30.4062 21.25C30.4062 22.5444 31.4556 23.5938 32.75 23.5938C34.0444 23.5938 35.0938 22.5444 35.0938 21.25C35.0938 19.9556 34.0444 18.9062 32.75 18.9062C31.4556 18.9062 30.4062 19.9556 30.4062 21.25Z" fill="#EF2F50"/>
</g>
<defs>
<clipPath id="clip0_0_1">
<rect x="14" y="15" width="25" height="25" fill="white"/>
</clipPath>
</defs>
</svg>
