<svg width="54" height="56" viewBox="0 0 54 56" fill="none" xmlns="http://www.w3.org/2000/svg">
<path d="M19.0833 54.3333H34.5833C47.5 54.3333 52.6667 49 52.6667 35.6667V19.6667C52.6667 6.33333 47.5 1 34.5833 1H19.0833C6.16667 1 1 6.33333 1 19.6667V35.6667C1 49 6.16667 54.3333 19.0833 54.3333Z" stroke="white" stroke-width="1.5" stroke-linecap="round" stroke-linejoin="round"/>
<path d="M18.7251 32.5625C18.6018 32.5625 18.4786 32.581 18.361 32.62C17.6928 32.842 16.99 32.9844 16.2501 32.9844C15.5101 32.9844 14.8073 32.842 14.1386 32.62C14.021 32.581 13.8983 32.5625 13.7751 32.5625C10.5751 32.5625 7.98307 35.2245 8.00008 38.5014C8.0073 39.8862 9.12053 41 10.4751 41H22.025C23.3796 41 24.4928 39.8862 24.5 38.5014C24.5171 35.2245 21.925 32.5625 18.7251 32.5625ZM16.2501 30.875C18.9839 30.875 21.2001 28.6085 21.2001 25.8125C21.2001 23.0165 18.9839 20.75 16.2501 20.75C13.5162 20.75 11.3001 23.0165 11.3001 25.8125C11.3001 28.6085 13.5162 30.875 16.2501 30.875ZM38.525 14H18.7251C17.3602 14 16.2501 15.1733 16.2501 16.6151V19.0625C17.4577 19.0625 18.5755 19.42 19.5501 20.0012V17.375H37.7V32.5625H34.4V29.1875H27.8V32.5625H23.8689C24.8538 33.4426 25.5767 34.6049 25.9154 35.9375H38.525C39.8899 35.9375 41 34.7642 41 33.3224V16.6151C41 15.1733 39.8899 14 38.525 14Z" fill="white"/>
</svg>
