<svg width="65" height="89" viewBox="0 0 65 89" fill="none" xmlns="http://www.w3.org/2000/svg">
<rect width="65" height="89" fill="#F0F0F0"/>
<rect width="1440" height="900" transform="translate(-1321 -372)" fill="white"/>
<rect x="-1069.5" y="0.5" width="1134" height="88" rx="9.5" stroke="#131212"/>
<rect x="0.5" y="0.5" width="64" height="88" rx="9.5" fill="#DD0F0F" stroke="#DD0F0F"/>
<path d="M32 33C25.371 33 20 38.371 20 45C20 51.629 25.371 57 32 57C38.629 57 44 51.629 44 45C44 38.371 38.629 33 32 33ZM25.6129 46.9355C25.2935 46.9355 25.0323 46.6742 25.0323 46.3548V43.6452C25.0323 43.3258 25.2935 43.0645 25.6129 43.0645H38.3871C38.7065 43.0645 38.9677 43.3258 38.9677 43.6452V46.3548C38.9677 46.6742 38.7065 46.9355 38.3871 46.9355H25.6129Z" fill="white"/>
</svg>
