<svg width="62" height="64" viewBox="0 0 62 64" fill="none" xmlns="http://www.w3.org/2000/svg">
<path d="M38.75 58.6667H23.25C10.3333 58.6667 5.16666 53.3334 5.16666 40V24C5.16666 10.6667 10.3333 5.33337 23.25 5.33337H38.75C51.6667 5.33337 56.8333 10.6667 56.8333 24V40C56.8333 53.3334 51.6667 58.6667 38.75 58.6667Z" stroke="white" stroke-width="1.5" stroke-linecap="round" stroke-linejoin="round"/>
<path d="M22 38.2133C22 41.6533 24.5575 44.4267 27.735 44.4267H34.2192C36.9833 44.4267 39.2308 42 39.2308 39.0133C39.2308 35.76 37.8617 34.6133 35.8208 33.8667L25.41 30.1333C23.3692 29.3867 22 28.24 22 24.9867C22 22 24.2475 19.5733 27.0117 19.5733H33.4958C36.6733 19.5733 39.2308 22.3467 39.2308 25.7867M30.5973 16V48" stroke="white" stroke-width="1.5" stroke-linecap="round" stroke-linejoin="round"/>
</svg>
