<svg width="54" height="56" viewBox="0 0 54 56" fill="none" xmlns="http://www.w3.org/2000/svg">
<path d="M34.75 54.6667H19.25C6.33329 54.6667 1.16663 49.3334 1.16663 36V20C1.16663 6.66671 6.33329 1.33337 19.25 1.33337H34.75C47.6666 1.33337 52.8333 6.66671 52.8333 20V36C52.8333 49.3334 47.6666 54.6667 34.75 54.6667Z" stroke="#EF2F50" stroke-width="1.5" stroke-linecap="round" stroke-linejoin="round"/>
<path d="M18 34.2133C18 37.6533 20.5575 40.4267 23.735 40.4267H30.2192C32.9833 40.4267 35.2308 38 35.2308 35.0133C35.2308 31.76 33.8617 30.6133 31.8208 29.8667L21.41 26.1333C19.3692 25.3867 18 24.24 18 20.9867C18 18 20.2475 15.5733 23.0117 15.5733H29.4958C32.6733 15.5733 35.2308 18.3467 35.2308 21.7867M26.5973 12V44" stroke="#EF2F50" stroke-width="1.5" stroke-linecap="round" stroke-linejoin="round"/>
</svg>
