<svg width="11" height="11" viewBox="0 0 11 11" fill="none" xmlns="http://www.w3.org/2000/svg">
<path d="M11 5.5C11 8.53831 8.53831 11 5.5 11C2.46169 11 0 8.53831 0 5.5C0 2.46169 2.46169 0 5.5 0C8.53831 0 11 2.46169 11 5.5ZM5.87702 8.02601L8.88206 5.02097C9.09052 4.8125 9.09052 4.4754 8.88206 4.26915L8.50504 3.89214C8.29657 3.68367 7.95948 3.68367 7.75323 3.89214L5.5 6.14536L3.24677 3.89214C3.03831 3.68367 2.70121 3.68367 2.49496 3.89214L2.11794 4.26915C1.90948 4.47762 1.90948 4.81472 2.11794 5.02097L5.12298 8.02601C5.33145 8.23448 5.66855 8.23448 5.87702 8.02601Z" fill="#999999"/>
</svg>
