<svg width="428" height="900" viewBox="0 0 428 900" fill="none" xmlns="http://www.w3.org/2000/svg">
<rect width="428" height="900" rx="33" fill="black"/>
<path d="M144.369 270H130.448V230.727H144.484C148.435 230.727 151.835 231.513 154.686 233.086C157.537 234.646 159.729 236.889 161.264 239.817C162.81 242.744 163.584 246.247 163.584 250.325C163.584 254.416 162.81 257.932 161.264 260.872C159.729 263.812 157.524 266.069 154.648 267.641C151.784 269.214 148.358 270 144.369 270ZM138.751 262.886H144.024C146.479 262.886 148.543 262.451 150.218 261.582C151.906 260.7 153.171 259.338 154.015 257.497C154.872 255.643 155.3 253.253 155.3 250.325C155.3 247.423 154.872 245.052 154.015 243.211C153.171 241.37 151.912 240.015 150.237 239.146C148.563 238.276 146.498 237.842 144.043 237.842H138.751V262.886ZM182.889 270.575C179.911 270.575 177.335 269.942 175.161 268.677C173.001 267.398 171.333 265.621 170.157 263.346C168.98 261.058 168.392 258.405 168.392 255.388C168.392 252.345 168.98 249.686 170.157 247.411C171.333 245.122 173.001 243.345 175.161 242.08C177.335 240.801 179.911 240.162 182.889 240.162C185.868 240.162 188.438 240.801 190.598 242.08C192.772 243.345 194.446 245.122 195.622 247.411C196.799 249.686 197.387 252.345 197.387 255.388C197.387 258.405 196.799 261.058 195.622 263.346C194.446 265.621 192.772 267.398 190.598 268.677C188.438 269.942 185.868 270.575 182.889 270.575ZM182.928 264.247C184.283 264.247 185.414 263.864 186.322 263.097C187.23 262.317 187.914 261.256 188.374 259.913C188.847 258.571 189.083 257.043 189.083 255.33C189.083 253.617 188.847 252.089 188.374 250.747C187.914 249.405 187.23 248.344 186.322 247.564C185.414 246.784 184.283 246.394 182.928 246.394C181.56 246.394 180.409 246.784 179.476 247.564C178.556 248.344 177.859 249.405 177.386 250.747C176.926 252.089 176.696 253.617 176.696 255.33C176.696 257.043 176.926 258.571 177.386 259.913C177.859 261.256 178.556 262.317 179.476 263.097C180.409 263.864 181.56 264.247 182.928 264.247ZM202.698 270V240.545H210.484V245.742H210.829C211.443 244.016 212.465 242.655 213.897 241.658C215.329 240.661 217.042 240.162 219.036 240.162C221.056 240.162 222.776 240.667 224.195 241.677C225.614 242.674 226.56 244.029 227.033 245.742H227.34C227.941 244.055 229.027 242.706 230.6 241.696C232.185 240.673 234.058 240.162 236.218 240.162C238.967 240.162 241.198 241.038 242.911 242.789C244.637 244.528 245.5 246.995 245.5 250.191V270H237.35V251.802C237.35 250.165 236.915 248.938 236.046 248.12C235.176 247.302 234.09 246.893 232.786 246.893C231.303 246.893 230.146 247.366 229.315 248.312C228.484 249.245 228.068 250.479 228.068 252.013V270H220.149V251.629C220.149 250.185 219.733 249.034 218.902 248.178C218.084 247.321 217.004 246.893 215.661 246.893C214.754 246.893 213.936 247.123 213.207 247.583C212.491 248.031 211.922 248.663 211.5 249.482C211.078 250.287 210.867 251.233 210.867 252.32V270H202.698ZM265.376 270.575C262.346 270.575 259.738 269.962 257.552 268.734C255.378 267.494 253.704 265.743 252.528 263.48C251.351 261.205 250.763 258.513 250.763 255.407C250.763 252.377 251.351 249.718 252.528 247.43C253.704 245.141 255.359 243.358 257.494 242.08C259.642 240.801 262.16 240.162 265.05 240.162C266.993 240.162 268.802 240.475 270.476 241.102C272.164 241.715 273.634 242.642 274.887 243.882C276.153 245.122 277.137 246.682 277.84 248.561C278.543 250.428 278.895 252.614 278.895 255.119V257.363H254.023V252.3H271.205C271.205 251.124 270.949 250.082 270.438 249.175C269.927 248.267 269.217 247.558 268.31 247.046C267.415 246.522 266.373 246.26 265.184 246.26C263.944 246.26 262.844 246.548 261.886 247.123C260.94 247.685 260.198 248.446 259.661 249.405C259.124 250.351 258.849 251.406 258.837 252.569V257.382C258.837 258.839 259.105 260.099 259.642 261.16C260.192 262.221 260.965 263.039 261.962 263.614C262.959 264.19 264.142 264.477 265.51 264.477C266.418 264.477 267.248 264.349 268.003 264.094C268.757 263.838 269.403 263.455 269.94 262.943C270.476 262.432 270.886 261.805 271.167 261.064L278.722 261.562C278.339 263.378 277.552 264.963 276.364 266.318C275.187 267.661 273.666 268.709 271.8 269.463C269.946 270.205 267.805 270.575 265.376 270.575Z" fill="white"/>
<path d="M167.001 212H129.876V107.273H167.308C177.842 107.273 186.91 109.369 194.512 113.562C202.114 117.722 207.961 123.705 212.052 131.511C216.177 139.318 218.239 148.659 218.239 159.534C218.239 170.443 216.177 179.818 212.052 187.659C207.961 195.5 202.08 201.517 194.41 205.71C186.773 209.903 177.637 212 167.001 212ZM152.018 193.028H166.08C172.626 193.028 178.131 191.869 182.597 189.551C187.097 187.199 190.472 183.568 192.722 178.659C195.006 173.716 196.148 167.341 196.148 159.534C196.148 151.795 195.006 145.472 192.722 140.562C190.472 135.653 187.114 132.04 182.648 129.722C178.183 127.403 172.677 126.244 166.131 126.244H152.018V193.028ZM252.437 133.455L266.857 160.915L281.636 133.455H303.982L281.227 172.727L304.596 212H282.352L266.857 184.847L251.619 212H229.119L252.437 172.727L229.937 133.455H252.437Z" fill="white"/>
</svg>
