<svg width="54" height="56" viewBox="0 0 54 56" fill="none" xmlns="http://www.w3.org/2000/svg">
<path d="M19.0833 54.3333H34.5833C47.5 54.3333 52.6667 49 52.6667 35.6667V19.6667C52.6667 6.33333 47.5 1 34.5833 1H19.0833C6.16667 1 1 6.33333 1 19.6667V35.6667C1 49 6.16667 54.3333 19.0833 54.3333Z" stroke="white" stroke-width="1.5" stroke-linecap="round" stroke-linejoin="round"/>
<path d="M31.2588 19.7205L32.0644 33.9835L31.4785 33.9678C29.5449 33.9206 27.6552 34.471 25.9999 35.5718C24.3447 34.471 22.4551 33.9678 20.5214 33.9678C18.0898 33.9678 16.1415 34.5811 13.9297 35.5561L15.5996 20.7583C17.123 20.0821 18.8808 19.7205 20.5215 19.7205C22.7188 19.7205 24.4619 20.4753 26 22.1579C27.4795 20.5382 29.1494 19.7676 31.2588 19.7205ZM41 39C39.6377 39 38.4658 38.7012 37.2354 38.1037C35.4043 37.2073 33.5 36.6726 31.4785 36.6726C29.3984 36.6726 27.4795 37.4118 26 39C24.5205 37.4117 22.6016 36.6726 20.5215 36.6726C18.5 36.6726 16.5957 37.2073 14.7646 38.1037C13.5781 38.6698 12.3769 39 11.0733 39H11L13.2705 18.9971C15.3652 17.7234 17.9141 17 20.331 17C22.3086 17 24.3448 17.4403 26 18.6669C27.6552 17.4403 29.6914 17 31.669 17C34.0859 17 36.6348 17.7234 38.7295 18.9971L41 39ZM38.6856 36.4367L36.8691 20.381C35.2285 19.5789 33.2803 19.1543 31.4785 19.1543C29.4277 19.1543 27.5088 19.8462 26 21.3716C24.4912 19.8462 22.5723 19.1543 20.5215 19.1543C18.7197 19.1543 16.7715 19.5789 15.1309 20.381L13.3144 36.4367C15.834 35.3203 17.7383 34.5182 20.5215 34.5182C22.5283 34.5182 24.3008 35.0686 26 36.2166C27.6992 35.0686 29.4717 34.5182 31.4785 34.5182C34.2617 34.5182 36.166 35.3203 38.6856 36.4367Z" fill="white"/>
</svg>
