<svg width="54" height="56" viewBox="0 0 54 56" fill="none" xmlns="http://www.w3.org/2000/svg">
<path d="M38.4958 34.4V18.6667C38.4958 17.2 37.3333 16 35.9124 16H28.4208" stroke="#EF2F50" stroke-width="1.5" stroke-linecap="round" stroke-linejoin="round"/>
<path d="M32.2958 12L27.6458 16L32.2958 20M15.5041 23.2V34.4M15.8916 22.4C17.2277 22.4 18.509 21.8521 19.4537 20.877C20.3984 19.9018 20.9291 18.5791 20.9291 17.2C20.9291 15.8209 20.3984 14.4982 19.4537 13.523C18.509 12.5479 17.2277 12 15.8916 12C14.5556 12 13.2743 12.5479 12.3296 13.523C11.3849 14.4982 10.8541 15.8209 10.8541 17.2C10.8541 18.5791 11.3849 19.9018 12.3296 20.877C13.2743 21.8521 14.5556 22.4 15.8916 22.4V22.4ZM15.5041 44C16.7374 44 17.9201 43.4943 18.7922 42.5941C19.6642 41.6939 20.1541 40.473 20.1541 39.2C20.1541 37.927 19.6642 36.7061 18.7922 35.8059C17.9201 34.9057 16.7374 34.4 15.5041 34.4C14.2709 34.4 13.0881 34.9057 12.2161 35.8059C11.344 36.7061 10.8541 37.927 10.8541 39.2C10.8541 40.473 11.344 41.6939 12.2161 42.5941C13.0881 43.4943 14.2709 44 15.5041 44ZM38.4958 44C39.7291 44 40.9118 43.4943 41.7838 42.5941C42.6559 41.6939 43.1458 40.473 43.1458 39.2C43.1458 37.927 42.6559 36.7061 41.7838 35.8059C40.9118 34.9057 39.7291 34.4 38.4958 34.4C37.2625 34.4 36.0798 34.9057 35.2077 35.8059C34.3357 36.7061 33.8458 37.927 33.8458 39.2C33.8458 40.473 34.3357 41.6939 35.2077 42.5941C36.0798 43.4943 37.2625 44 38.4958 44V44Z" stroke="#EF2F50" stroke-width="1.5" stroke-linecap="round" stroke-linejoin="round"/>
<path d="M19.25 54.6667H34.75C47.6666 54.6667 52.8333 49.3334 52.8333 36V20C52.8333 6.66671 47.6666 1.33337 34.75 1.33337H19.25C6.33329 1.33337 1.16663 6.66671 1.16663 20V36C1.16663 49.3334 6.33329 54.6667 19.25 54.6667Z" stroke="#EF2F50" stroke-width="1.5" stroke-linecap="round" stroke-linejoin="round"/>
</svg>
