<svg width="62" height="64" viewBox="0 0 62 64" fill="none" xmlns="http://www.w3.org/2000/svg">
<path d="M42.4958 38.4V22.6667C42.4958 21.2 41.3333 20 39.9125 20H32.4208" stroke="white" stroke-width="1.5" stroke-linecap="round" stroke-linejoin="round"/>
<path d="M36.2958 16L31.6458 20L36.2958 24M19.5042 27.2V38.4M19.8917 26.4C21.2277 26.4 22.509 25.8521 23.4537 24.877C24.3984 23.9018 24.9292 22.5791 24.9292 21.2C24.9292 19.8209 24.3984 18.4982 23.4537 17.523C22.509 16.5479 21.2277 16 19.8917 16C18.5556 16 17.2743 16.5479 16.3296 17.523C15.3849 18.4982 14.8542 19.8209 14.8542 21.2C14.8542 22.5791 15.3849 23.9018 16.3296 24.877C17.2743 25.8521 18.5556 26.4 19.8917 26.4V26.4ZM19.5042 48C20.7374 48 21.9202 47.4943 22.7922 46.5941C23.6642 45.6939 24.1542 44.473 24.1542 43.2C24.1542 41.927 23.6642 40.7061 22.7922 39.8059C21.9202 38.9057 20.7374 38.4 19.5042 38.4C18.2709 38.4 17.0882 38.9057 16.2161 39.8059C15.3441 40.7061 14.8542 41.927 14.8542 43.2C14.8542 44.473 15.3441 45.6939 16.2161 46.5941C17.0882 47.4943 18.2709 48 19.5042 48ZM42.4958 48C43.7291 48 44.9118 47.4943 45.7839 46.5941C46.6559 45.6939 47.1458 44.473 47.1458 43.2C47.1458 41.927 46.6559 40.7061 45.7839 39.8059C44.9118 38.9057 43.7291 38.4 42.4958 38.4C41.2626 38.4 40.0798 38.9057 39.2078 39.8059C38.3357 40.7061 37.8458 41.927 37.8458 43.2C37.8458 44.473 38.3357 45.6939 39.2078 46.5941C40.0798 47.4943 41.2626 48 42.4958 48V48Z" stroke="white" stroke-width="1.5" stroke-linecap="round" stroke-linejoin="round"/>
<path d="M23.25 58.6667H38.75C51.6667 58.6667 56.8333 53.3334 56.8333 40V24C56.8333 10.6667 51.6667 5.33337 38.75 5.33337H23.25C10.3333 5.33337 5.16666 10.6667 5.16666 24V40C5.16666 53.3334 10.3333 58.6667 23.25 58.6667Z" stroke="white" stroke-width="1.5" stroke-linecap="round" stroke-linejoin="round"/>
</svg>
