<svg width="430" height="425" viewBox="0 0 430 425" fill="none" xmlns="http://www.w3.org/2000/svg">
<path d="M406.759 0C409.98 45.0907 412.789 90.1974 415.24 135.338C415.306 136.548 415.371 137.757 415.439 139.004C416.388 156.472 417.327 173.94 418.263 191.409C419.211 209.099 420.162 226.789 421.121 244.479C421.562 252.606 421.996 260.733 422.428 268.86C423.827 294.876 425.486 320.862 427.379 346.846C429.221 372.25 430.241 397.487 429.951 422.959C425.09 424.601 422.302 424.992 417.309 424.989C415.82 424.993 414.33 424.996 412.795 425C411.159 424.995 409.522 424.989 407.836 424.984C406.098 424.986 404.359 424.987 402.568 424.989C396.717 424.992 390.866 424.982 385.015 424.972C380.831 424.971 376.647 424.972 372.463 424.973C361.081 424.973 349.699 424.963 338.318 424.95C327.635 424.94 316.952 424.938 306.27 424.936C285.109 424.932 263.948 424.92 242.787 424.903C222.229 424.886 201.672 424.874 181.114 424.866C179.847 424.866 178.581 424.865 177.275 424.865C170.92 424.862 164.564 424.86 158.209 424.858C105.473 424.839 52.7364 424.807 0 424.767C3.0341 416.78 6.92808 409.611 11.2617 402.286C12.0419 400.954 12.8221 399.623 13.6259 398.251C15.3236 395.354 17.0238 392.458 18.7262 389.564C23.3548 381.69 27.9559 373.799 32.5585 365.909C33.5298 364.246 34.501 362.582 35.5016 360.869C43.7924 346.655 52.0055 332.397 60.201 318.127C65.4756 308.951 70.7741 299.79 76.1209 290.657C77.1754 288.856 78.2298 287.055 79.3162 285.199C81.3152 281.79 83.3174 278.382 85.3233 274.976C89.8906 267.187 94.2707 259.424 98.1217 251.245C92.6962 248.344 87.2694 245.445 81.8424 242.546C79.5519 241.321 79.5519 241.321 77.2151 240.072C69.3572 235.877 61.4861 231.729 53.5209 227.747C55.5486 221.584 56.3525 221.158 61.6257 218.018C62.9407 217.222 64.2557 216.425 65.6106 215.605C67.0299 214.766 68.4493 213.926 69.9117 213.061C72.8633 211.277 75.8134 209.491 78.7621 207.702C80.2311 206.815 81.7 205.927 83.2135 205.013C89.0405 201.449 94.7599 197.731 100.463 193.969C110.083 187.639 119.82 181.532 129.649 175.541C131.608 174.278 133.568 173.015 135.586 171.714C136.966 170.909 138.345 170.104 139.766 169.275C153.424 160.681 159.803 150.09 167.253 135.903C169.472 131.823 171.693 127.745 173.915 123.667C174.972 121.696 176.029 119.726 177.119 117.696C180.716 111.096 184.516 104.643 188.382 98.2013C190.861 94.0418 193.267 89.8472 195.651 85.6312C196.397 84.3194 197.143 83.0076 197.912 81.656C199.431 78.9826 200.94 76.304 202.442 73.6211C203.181 72.3279 203.921 71.0347 204.683 69.7024C205.334 68.5491 205.985 67.3957 206.656 66.2074C208.732 63.2631 208.732 63.2631 214.084 59.6481C231.506 88.8376 231.506 88.8376 239.06 103.029C246.016 101.221 251.387 98.517 257.249 94.4428C271.17 84.8832 285.457 75.9076 299.717 66.8782C302.702 64.9882 302.702 64.9882 305.747 63.0601C311.043 59.7108 316.346 56.3731 321.653 53.0423C323.752 51.7242 325.848 50.4033 327.943 49.0798C330.89 47.2192 333.844 45.3702 336.798 43.5216C339.362 41.9113 339.362 41.9113 341.977 40.2685C346.102 37.9579 346.102 37.9579 349.67 37.9579C349.67 36.7649 349.67 35.572 349.67 34.3428C351.94 33.0602 351.94 33.0602 354.255 31.7516C366.383 24.844 393.819 0 406.759 0Z" fill="#EA3857"/>
</svg>
